<svg id="svg" version="1.1" xmlns="http://www.w3.org/2000/svg" xmlns:xlink="http://www.w3.org/1999/xlink" width="400" height="46" viewBox="0, 0, 400,46"><g id="svgg"><path id="path0" d="M61.171 5.229 C 61.077 5.323,61.000 5.541,61.000 5.713 C 61.000 6.091,60.148 6.979,59.722 7.045 C 59.141 7.136,59.038 7.323,59.061 8.241 L 59.083 9.152 58.333 9.201 C 57.842 9.233,57.598 9.322,57.625 9.458 C 57.648 9.573,57.574 9.648,57.461 9.625 C 57.164 9.565,57.039 11.061,57.154 13.304 C 57.207 14.341,57.190 15.297,57.117 15.428 C 56.851 15.904,57.171 16.828,57.643 16.947 C 58.593 17.185,59.066 17.922,59.053 19.144 C 59.047 19.791,59.120 20.301,59.229 20.372 C 59.357 20.456,59.344 20.496,59.188 20.497 C 59.004 20.499,59.000 20.549,59.165 20.749 C 59.333 20.951,59.882 20.996,62.123 20.991 C 65.253 20.984,64.973 20.905,65.131 21.835 C 65.264 22.612,65.439 22.766,66.352 22.911 C 66.930 23.003,66.960 23.042,67.102 23.878 C 67.235 24.662,67.296 24.755,67.708 24.803 C 67.960 24.832,68.167 24.921,68.167 25.000 C 68.167 25.079,67.960 25.168,67.708 25.197 C 67.296 25.245,67.235 25.338,67.102 26.122 C 66.960 26.958,66.930 26.997,66.352 27.089 C 65.439 27.234,65.264 27.388,65.131 28.165 C 64.974 29.088,65.276 28.999,62.119 29.047 C 60.599 29.071,59.294 29.151,59.219 29.225 C 58.997 29.447,59.003 32.333,59.226 32.336 C 59.349 32.338,59.341 32.387,59.200 32.476 C 58.492 32.925,59.545 32.999,66.045 32.958 C 73.338 32.912,72.851 32.991,72.962 31.837 C 73.006 31.377,73.089 30.996,73.146 30.991 C 73.203 30.986,73.567 30.962,73.955 30.938 C 74.922 30.879,74.935 30.853,74.991 28.938 C 74.998 28.701,75.052 28.669,75.217 28.806 C 75.336 28.905,75.754 28.967,76.147 28.946 C 76.908 28.903,77.266 29.213,77.064 29.740 C 77.008 29.885,77.055 30.116,77.168 30.252 C 77.332 30.449,77.331 30.500,77.167 30.500 C 77.001 30.500,77.001 30.551,77.167 30.750 C 77.303 30.915,77.676 31.000,78.258 31.000 L 79.141 31.000 79.112 31.742 C 79.065 32.974,78.662 32.912,87.029 32.961 C 94.883 33.008,95.000 32.998,95.000 32.290 C 95.000 31.662,95.823 31.104,97.066 30.889 C 98.500 30.641,98.636 30.501,98.923 28.982 L 99.155 27.750 99.106 30.142 C 99.069 31.982,99.110 32.586,99.283 32.760 C 99.596 33.072,112.577 33.096,112.390 32.784 C 112.307 32.646,112.353 32.651,112.534 32.798 C 112.890 33.086,118.573 33.068,118.802 32.778 C 118.887 32.671,118.971 31.991,118.989 31.267 C 119.027 29.821,119.400 29.187,120.354 28.947 C 120.930 28.803,120.997 28.419,121.013 25.188 C 121.020 23.755,121.064 22.677,121.110 22.792 C 121.364 23.419,122.745 22.870,122.970 22.053 L 123.145 21.417 123.126 22.000 C 123.091 23.071,123.165 23.687,123.318 23.593 C 123.401 23.542,123.433 23.638,123.388 23.808 C 123.276 24.237,123.742 24.648,124.470 24.765 L 125.083 24.863 125.070 26.640 C 125.054 28.657,125.150 29.697,125.339 29.580 C 125.411 29.536,125.433 29.638,125.388 29.808 C 125.274 30.244,125.745 30.649,126.510 30.771 C 127.108 30.867,127.154 30.911,127.057 31.296 C 126.980 31.603,127.006 31.682,127.155 31.591 C 127.308 31.496,127.306 31.548,127.147 31.802 C 126.975 32.079,126.980 32.193,127.177 32.435 C 127.387 32.694,127.386 32.713,127.167 32.583 C 126.953 32.458,126.949 32.476,127.138 32.710 C 127.434 33.074,138.332 33.158,138.336 32.796 C 138.338 32.627,138.366 32.628,138.476 32.800 C 138.586 32.974,138.652 32.969,138.813 32.774 C 138.971 32.585,138.967 32.514,138.799 32.446 C 138.634 32.380,138.632 32.357,138.792 32.346 C 138.952 32.336,139.004 31.364,139.017 28.125 C 139.026 25.810,139.085 24.101,139.148 24.327 C 139.267 24.756,139.703 24.954,140.590 24.983 L 141.096 25.000 141.054 26.265 C 140.982 28.423,141.104 28.723,142.132 28.898 C 142.609 28.980,143.008 29.130,143.018 29.232 C 143.028 29.333,143.051 30.067,143.069 30.861 C 143.104 32.334,143.270 32.783,143.803 32.843 C 145.252 33.006,150.496 32.961,150.391 32.786 C 150.305 32.642,150.346 32.646,150.534 32.798 C 150.890 33.086,156.573 33.068,156.802 32.778 C 156.887 32.671,156.971 31.991,156.989 31.267 C 157.027 29.821,157.400 29.187,158.354 28.947 C 158.930 28.803,158.997 28.419,159.013 25.188 C 159.020 23.755,159.064 22.677,159.110 22.792 C 159.364 23.419,160.745 22.870,160.970 22.053 L 161.145 21.417 161.126 22.000 C 161.091 23.071,161.165 23.687,161.318 23.593 C 161.401 23.542,161.433 23.638,161.388 23.808 C 161.276 24.237,161.742 24.648,162.470 24.765 L 163.083 24.863 163.070 26.640 C 163.054 28.657,163.150 29.697,163.339 29.580 C 163.411 29.536,163.433 29.638,163.388 29.808 C 163.274 30.244,163.745 30.649,164.510 30.771 C 165.108 30.867,165.154 30.911,165.057 31.296 C 164.980 31.603,165.006 31.682,165.155 31.591 C 165.308 31.496,165.306 31.548,165.147 31.802 C 164.975 32.079,164.980 32.193,165.177 32.435 C 165.387 32.694,165.386 32.713,165.167 32.583 C 164.956 32.459,164.951 32.478,165.131 32.700 C 165.418 33.054,169.498 33.147,169.503 32.799 C 169.504 32.644,169.540 32.637,169.628 32.775 C 169.788 33.027,170.999 33.026,171.003 32.775 C 171.004 32.661,171.064 32.677,171.153 32.816 C 171.310 33.065,172.419 32.981,172.700 32.700 C 172.981 32.419,173.065 31.310,172.816 31.153 C 172.650 31.047,172.643 31.004,172.792 31.003 C 173.330 30.996,172.926 29.196,172.354 29.053 C 171.223 28.769,171.000 28.241,171.000 25.856 C 171.000 24.566,170.931 23.644,170.831 23.582 C 170.737 23.524,170.703 23.409,170.754 23.327 C 170.805 23.244,170.638 23.124,170.382 23.060 C 169.209 22.765,169.009 22.280,168.990 19.685 C 168.981 18.393,168.907 17.296,168.827 17.246 C 168.747 17.197,168.722 17.049,168.772 16.918 C 169.037 16.228,168.180 15.100,167.642 15.432 C 167.522 15.506,167.493 15.479,167.567 15.359 C 167.643 15.237,167.560 15.167,167.343 15.167 C 167.017 15.167,167.000 15.074,167.000 13.260 C 167.000 12.211,166.928 11.309,166.841 11.254 C 166.753 11.200,166.722 11.049,166.772 10.918 C 167.037 10.228,166.180 9.100,165.642 9.432 C 165.522 9.506,165.493 9.479,165.567 9.359 C 165.643 9.237,165.560 9.167,165.343 9.167 C 165.024 9.167,164.999 9.065,164.986 7.708 C 164.967 5.602,164.932 5.331,164.661 5.159 C 164.333 4.952,164.167 4.961,164.167 5.187 C 164.167 5.318,164.104 5.322,163.958 5.202 C 163.746 5.026,160.889 5.005,160.583 5.177 C 160.492 5.228,160.229 5.245,160.000 5.214 C 157.215 4.837,157.039 4.952,157.086 7.112 C 157.126 8.941,157.033 9.167,156.241 9.167 C 155.165 9.167,155.113 9.339,155.094 13.000 L 155.083 15.083 154.333 15.167 C 153.855 15.220,153.598 15.325,153.625 15.458 C 153.648 15.573,153.573 15.648,153.458 15.625 C 153.323 15.598,153.216 15.877,153.153 16.417 C 153.100 16.875,153.016 14.738,152.966 11.667 C 152.863 5.325,152.877 5.577,152.614 5.360 C 152.279 5.085,150.761 4.914,150.919 5.170 C 151.015 5.325,150.987 5.344,150.817 5.237 C 150.492 5.031,149.667 5.013,149.667 5.211 C 149.667 5.316,149.592 5.315,149.458 5.208 C 149.203 5.004,146.340 5.026,146.016 5.234 C 145.851 5.340,145.819 5.325,145.905 5.185 C 145.993 5.043,145.895 5.003,145.569 5.046 C 145.211 5.094,145.094 5.211,145.046 5.569 C 145.000 5.911,145.040 5.996,145.201 5.899 C 145.377 5.793,145.377 5.818,145.202 6.034 C 145.085 6.179,145.000 6.362,145.014 6.441 C 145.126 7.064,144.965 15.536,144.844 15.346 C 144.757 15.208,144.364 15.089,143.910 15.062 C 142.936 15.004,143.041 15.220,142.971 13.136 C 142.903 11.087,142.939 11.158,141.923 11.090 C 140.937 11.023,141.005 11.156,140.986 9.279 C 140.976 8.393,140.900 7.624,140.815 7.572 C 140.730 7.520,140.699 7.415,140.746 7.340 C 140.851 7.170,140.046 6.952,139.824 7.089 C 139.339 7.389,139.000 6.977,139.000 6.090 C 139.000 5.306,138.957 5.193,138.625 5.120 C 137.849 4.948,131.518 5.082,131.326 5.274 C 131.190 5.410,131.143 7.675,131.159 13.349 C 131.170 17.687,131.141 21.196,131.093 21.148 C 131.045 21.100,130.997 20.222,130.988 19.198 C 130.978 18.173,130.905 17.294,130.826 17.245 C 130.746 17.196,130.722 17.049,130.772 16.918 C 131.037 16.228,130.180 15.100,129.642 15.432 C 129.522 15.506,129.493 15.479,129.567 15.359 C 129.643 15.237,129.560 15.167,129.343 15.167 C 129.017 15.167,129.000 15.074,129.000 13.260 C 129.000 12.211,128.928 11.309,128.841 11.254 C 128.753 11.200,128.722 11.049,128.772 10.918 C 129.037 10.228,128.180 9.100,127.642 9.432 C 127.522 9.506,127.493 9.479,127.567 9.359 C 127.643 9.237,127.560 9.167,127.343 9.167 C 127.024 9.167,126.999 9.065,126.986 7.708 C 126.967 5.602,126.932 5.331,126.661 5.159 C 126.333 4.952,126.167 4.961,126.167 5.187 C 126.167 5.318,126.104 5.322,125.958 5.202 C 125.746 5.026,122.889 5.005,122.583 5.177 C 122.492 5.228,122.229 5.245,122.000 5.214 C 119.215 4.837,119.039 4.952,119.086 7.112 C 119.126 8.941,119.033 9.167,118.241 9.167 C 117.165 9.167,117.113 9.339,117.094 13.000 L 117.083 15.083 116.333 15.167 C 115.855 15.220,115.598 15.325,115.625 15.458 C 115.648 15.573,115.575 15.648,115.464 15.625 C 115.195 15.570,115.053 16.907,115.075 19.292 C 115.089 20.919,115.056 21.167,114.821 21.167 C 113.825 21.167,112.932 22.149,113.228 22.918 C 113.278 23.049,113.259 23.193,113.185 23.239 C 113.112 23.284,113.059 24.186,113.067 25.244 C 113.081 26.902,113.047 27.167,112.817 27.167 C 112.008 27.167,111.488 27.538,111.297 28.254 C 111.076 29.082,110.899 29.129,108.375 29.029 L 107.000 28.975 106.986 17.529 C 106.971 5.091,106.977 5.359,106.687 5.179 C 106.318 4.951,99.336 5.059,99.190 5.295 C 99.118 5.412,99.079 6.574,99.104 7.879 L 99.149 10.250 98.914 9.012 C 98.624 7.485,98.507 7.366,97.070 7.129 C 95.832 6.925,95.000 6.351,95.000 5.700 C 95.000 5.521,94.906 5.302,94.792 5.213 C 94.501 4.988,83.453 4.974,83.314 5.198 C 83.246 5.308,83.100 5.312,82.896 5.209 C 82.451 4.984,79.530 5.070,79.284 5.316 C 79.174 5.426,79.097 5.850,79.112 6.258 C 79.133 6.794,79.075 7.006,78.904 7.021 C 78.773 7.032,78.385 7.052,78.042 7.065 C 77.149 7.098,77.058 7.208,77.078 8.223 L 77.096 9.130 76.224 9.078 C 75.186 9.015,75.037 9.155,75.070 10.167 C 75.098 11.006,74.972 11.159,74.250 11.167 C 73.196 11.177,73.018 11.777,73.085 15.083 C 73.130 17.276,73.097 17.452,72.703 17.133 C 72.480 16.953,72.459 16.955,72.577 17.151 C 72.682 17.325,72.658 17.348,72.484 17.240 C 72.355 17.160,71.095 17.074,69.682 17.049 C 66.752 16.997,66.982 17.069,66.970 16.204 C 66.959 15.349,66.797 15.106,66.219 15.071 C 65.961 15.056,65.581 15.033,65.375 15.021 C 65.008 15.000,65.000 14.957,65.000 13.000 L 65.000 11.000 65.813 11.000 C 66.834 11.000,67.051 10.759,66.975 9.713 L 66.917 8.917 69.571 8.963 C 71.585 8.998,72.257 8.958,72.360 8.796 C 72.467 8.628,72.495 8.631,72.497 8.812 C 72.500 9.000,72.546 9.002,72.758 8.827 C 72.964 8.656,72.972 8.585,72.800 8.476 C 72.633 8.370,72.631 8.338,72.792 8.336 C 73.117 8.332,73.079 5.440,72.750 5.167 C 72.548 4.999,72.500 5.004,72.497 5.188 C 72.496 5.340,72.454 5.356,72.372 5.234 C 72.149 4.900,64.003 4.978,64.128 5.313 C 64.218 5.554,64.196 5.557,63.928 5.338 C 63.574 5.050,61.435 4.965,61.171 5.229 M179.312 5.180 C 179.045 5.345,179.098 32.688,179.365 32.853 C 179.706 33.064,194.528 33.017,194.784 32.805 C 194.938 32.677,195.062 32.677,195.216 32.806 C 195.543 33.077,208.552 33.055,208.390 32.784 C 208.307 32.646,208.353 32.651,208.534 32.798 C 208.890 33.086,214.573 33.068,214.802 32.778 C 214.887 32.671,214.971 31.991,214.989 31.267 C 215.027 29.821,215.400 29.187,216.354 28.947 C 216.930 28.803,216.997 28.419,217.013 25.188 C 217.020 23.755,217.064 22.677,217.110 22.792 C 217.364 23.419,218.745 22.870,218.970 22.053 L 219.145 21.417 219.126 22.000 C 219.091 23.071,219.165 23.687,219.318 23.593 C 219.401 23.542,219.433 23.638,219.388 23.808 C 219.276 24.237,219.742 24.648,220.470 24.765 L 221.083 24.863 221.070 26.640 C 221.054 28.657,221.150 29.697,221.339 29.580 C 221.411 29.536,221.433 29.638,221.388 29.808 C 221.274 30.244,221.745 30.649,222.510 30.771 C 223.108 30.867,223.154 30.911,223.057 31.296 C 222.980 31.603,223.006 31.682,223.155 31.591 C 223.308 31.496,223.306 31.548,223.147 31.802 C 222.975 32.079,222.980 32.193,223.177 32.435 C 223.387 32.694,223.386 32.713,223.167 32.583 C 222.956 32.459,222.951 32.478,223.131 32.700 C 223.418 33.054,227.498 33.147,227.503 32.799 C 227.504 32.644,227.540 32.637,227.628 32.775 C 227.788 33.027,228.999 33.026,229.003 32.775 C 229.004 32.661,229.064 32.677,229.153 32.816 C 229.310 33.065,230.419 32.981,230.700 32.700 C 230.981 32.419,231.065 31.310,230.816 31.153 C 230.641 31.042,230.676 31.004,230.958 31.003 C 231.176 31.001,231.333 31.101,231.333 31.242 C 231.333 31.758,231.732 32.319,232.230 32.503 C 232.516 32.608,232.866 32.755,233.008 32.828 C 233.473 33.068,246.208 33.036,246.361 32.794 C 246.466 32.629,246.495 32.633,246.497 32.812 C 246.500 33.000,246.546 33.002,246.758 32.827 C 246.964 32.656,246.972 32.585,246.800 32.476 C 246.633 32.370,246.631 32.338,246.792 32.336 C 246.946 32.334,247.000 31.848,247.000 30.467 C 247.000 29.015,247.044 28.644,247.200 28.800 C 247.310 28.910,247.541 29.000,247.713 29.000 C 248.431 29.000,248.976 29.870,249.066 31.159 C 249.152 32.403,249.322 32.789,249.803 32.841 C 250.893 32.959,257.547 32.985,258.084 32.874 C 258.879 32.710,259.171 31.727,258.898 30.128 L 258.750 29.256 257.838 29.084 L 256.926 28.911 256.950 28.166 C 256.982 27.186,256.817 27.022,255.848 27.071 L 255.046 27.112 254.947 25.720 C 254.818 23.886,254.607 23.459,253.731 23.264 C 253.055 23.114,253.044 23.100,252.898 22.184 L 252.750 21.255 251.838 21.083 L 250.926 20.911 250.950 20.166 C 250.982 19.181,250.819 19.022,249.825 19.072 L 249.000 19.115 249.000 18.057 L 249.000 17.000 249.800 17.000 C 250.803 17.000,251.000 16.803,251.000 15.800 L 251.000 15.000 251.800 15.000 C 252.803 15.000,253.000 14.803,253.000 13.800 L 253.000 13.000 253.800 13.000 C 254.803 13.000,255.000 12.803,255.000 11.800 L 255.000 11.000 255.800 11.000 C 256.803 11.000,257.000 10.803,257.000 9.800 L 257.000 9.000 257.800 9.000 C 258.918 9.000,259.000 8.863,259.000 6.987 C 259.000 4.895,259.360 5.040,254.250 5.080 C 249.038 5.122,249.230 5.067,249.138 6.531 C 249.117 6.868,249.059 7.141,249.008 7.136 C 247.777 7.020,247.306 7.289,247.159 8.194 C 247.072 8.730,247.036 8.458,247.021 7.145 C 247.005 5.793,246.941 5.325,246.750 5.167 C 246.548 4.999,246.500 5.004,246.497 5.188 C 246.496 5.337,246.452 5.354,246.372 5.238 C 246.289 5.115,244.232 5.065,239.833 5.078 C 232.600 5.099,232.021 5.171,231.525 6.114 C 231.266 6.606,231.276 7.053,231.542 6.900 C 231.656 6.834,231.695 6.841,231.628 6.915 C 231.561 6.989,231.048 7.068,230.488 7.090 C 229.254 7.138,229.155 7.225,229.115 8.293 L 229.083 9.131 228.435 9.220 C 227.360 9.366,227.014 10.148,227.065 12.316 C 227.081 13.024,227.032 13.271,226.884 13.214 C 226.105 12.916,224.925 14.130,225.228 14.918 C 225.278 15.049,225.255 15.195,225.178 15.243 C 225.101 15.291,225.025 14.449,225.010 13.373 C 224.996 12.297,224.918 11.351,224.838 11.271 C 224.758 11.191,224.731 11.026,224.778 10.903 C 225.038 10.226,224.173 9.104,223.642 9.432 C 223.522 9.506,223.493 9.479,223.567 9.359 C 223.643 9.237,223.560 9.167,223.343 9.167 C 223.024 9.167,222.999 9.065,222.986 7.708 C 222.967 5.602,222.932 5.331,222.661 5.159 C 222.333 4.952,222.167 4.961,222.167 5.187 C 222.167 5.318,222.104 5.322,221.958 5.202 C 221.746 5.026,218.889 5.005,218.583 5.177 C 218.492 5.228,218.229 5.245,218.000 5.214 C 215.215 4.837,215.039 4.952,215.086 7.112 C 215.126 8.941,215.033 9.167,214.241 9.167 C 213.165 9.167,213.113 9.339,213.094 13.000 L 213.083 15.083 212.333 15.167 C 211.855 15.220,211.598 15.325,211.625 15.458 C 211.648 15.573,211.575 15.648,211.464 15.625 C 211.195 15.570,211.053 16.907,211.075 19.292 C 211.089 20.919,211.056 21.167,210.821 21.167 C 209.825 21.167,208.932 22.149,209.228 22.918 C 209.278 23.049,209.259 23.193,209.185 23.239 C 209.112 23.284,209.059 24.186,209.067 25.244 C 209.081 26.902,209.047 27.167,208.817 27.167 C 208.008 27.167,207.488 27.538,207.297 28.254 C 207.076 29.082,206.899 29.129,204.375 29.029 L 203.000 28.975 202.986 17.529 C 202.971 5.091,202.977 5.359,202.687 5.179 C 202.578 5.112,200.875 5.062,198.904 5.070 C 195.158 5.084,194.889 5.137,195.121 5.818 C 195.180 5.992,195.123 5.969,194.954 5.752 C 194.812 5.570,194.727 5.371,194.764 5.311 C 194.939 5.028,189.766 4.954,189.083 5.230 C 188.815 5.338,188.799 5.328,189.000 5.179 C 189.267 4.981,179.633 4.982,179.312 5.180 M269.607 5.138 C 269.229 5.211,268.982 5.869,269.104 6.479 C 269.201 6.966,268.843 7.160,267.803 7.183 C 267.115 7.198,267.141 6.930,267.109 14.266 C 267.082 20.562,267.104 20.768,267.803 20.840 C 267.957 20.856,269.424 20.898,271.062 20.933 L 274.041 20.997 274.597 21.586 C 274.903 21.910,275.113 22.280,275.063 22.408 C 274.937 22.737,275.517 23.000,276.365 23.000 L 277.086 23.000 277.086 25.000 L 277.086 27.000 276.585 27.021 C 275.307 27.075,274.921 27.221,275.065 27.596 C 275.113 27.721,274.899 28.093,274.589 28.422 L 274.026 29.019 272.389 29.023 C 271.489 29.025,270.658 29.104,270.543 29.200 C 270.423 29.300,270.333 29.307,270.333 29.217 C 270.333 29.087,269.265 29.067,267.803 29.169 C 267.242 29.209,267.126 29.571,267.125 31.290 C 267.123 32.358,267.311 32.787,267.803 32.842 C 269.267 33.006,288.261 32.951,288.368 32.783 C 288.462 32.636,288.496 32.643,288.497 32.812 C 288.500 33.000,288.546 33.002,288.758 32.827 C 288.964 32.656,288.972 32.585,288.800 32.476 C 288.633 32.370,288.631 32.338,288.792 32.336 C 288.954 32.334,289.000 31.088,289.000 26.667 L 289.000 21.000 292.000 21.000 L 295.000 21.000 295.017 26.125 C 295.026 28.944,295.045 31.625,295.058 32.083 L 295.083 32.917 297.958 32.962 C 300.198 32.998,300.834 32.961,300.836 32.796 C 300.838 32.626,300.866 32.626,300.975 32.798 C 301.079 32.962,301.336 32.978,302.061 32.864 C 302.601 32.780,303.049 32.778,303.100 32.861 C 303.273 33.141,314.623 32.951,314.868 32.665 C 314.986 32.526,315.065 32.444,315.043 32.483 C 315.021 32.521,315.084 32.651,315.184 32.770 C 315.443 33.084,330.332 33.105,330.336 32.792 C 330.338 32.630,330.369 32.632,330.476 32.800 C 330.586 32.974,330.652 32.969,330.813 32.774 C 330.971 32.585,330.967 32.514,330.799 32.446 C 330.634 32.380,330.632 32.357,330.792 32.346 C 330.954 32.336,331.000 31.082,331.000 26.667 L 331.000 21.000 332.292 20.987 C 333.002 20.981,334.577 20.986,335.792 20.999 C 337.519 21.018,338.001 20.975,338.003 20.803 C 338.005 20.626,338.031 20.625,338.141 20.797 C 338.216 20.915,338.396 20.965,338.542 20.909 C 338.905 20.770,339.059 20.307,338.797 20.141 C 338.646 20.045,338.641 20.004,338.781 20.003 C 338.890 20.001,339.002 19.757,339.031 19.461 C 339.082 18.935,339.101 18.923,339.800 18.974 C 340.738 19.043,341.029 18.789,340.995 17.929 C 340.981 17.556,340.976 16.748,340.985 16.135 L 341.000 15.020 341.745 14.909 C 342.719 14.763,342.877 14.537,342.875 13.290 C 342.873 11.369,342.813 11.251,341.745 11.091 L 341.000 10.980 340.983 9.865 C 340.974 9.252,340.968 8.451,340.970 8.085 C 340.976 7.180,340.798 7.023,339.825 7.072 C 339.040 7.113,338.999 7.094,338.986 6.682 C 338.953 5.604,338.888 5.303,338.661 5.159 C 338.333 4.952,338.167 4.961,338.167 5.187 C 338.167 5.316,338.102 5.321,337.958 5.205 C 337.705 4.998,315.525 5.013,315.206 5.220 C 315.090 5.295,315.039 5.445,315.093 5.553 C 315.147 5.661,315.072 5.602,314.925 5.421 C 314.633 5.060,305.722 4.852,305.944 5.212 C 305.997 5.297,305.886 5.284,305.698 5.183 C 305.258 4.948,305.117 4.951,305.266 5.192 C 305.344 5.318,305.311 5.339,305.171 5.253 C 304.889 5.079,303.185 5.003,303.088 5.160 C 303.046 5.227,302.653 5.223,302.214 5.151 C 301.060 4.961,300.795 4.970,300.933 5.192 C 301.014 5.325,300.978 5.339,300.817 5.237 C 300.492 5.031,299.667 5.013,299.667 5.211 C 299.667 5.316,299.592 5.315,299.458 5.208 C 299.203 5.004,296.340 5.026,296.016 5.234 C 295.851 5.340,295.819 5.325,295.905 5.185 C 295.993 5.043,295.895 5.003,295.569 5.046 C 295.211 5.094,295.094 5.211,295.046 5.569 C 295.000 5.911,295.040 5.996,295.201 5.899 C 295.377 5.793,295.377 5.818,295.202 6.034 C 295.085 6.179,295.000 6.362,295.014 6.441 C 295.028 6.519,295.031 8.927,295.020 11.792 L 295.000 17.000 292.000 17.000 L 289.000 17.000 289.000 11.187 C 289.000 6.223,288.963 5.344,288.750 5.167 C 288.548 4.999,288.500 5.004,288.497 5.188 C 288.496 5.339,288.453 5.355,288.372 5.235 C 288.235 5.032,284.539 5.004,284.232 5.204 C 284.130 5.270,284.000 5.277,283.943 5.220 C 283.763 5.041,280.840 5.042,280.951 5.222 C 281.014 5.324,280.964 5.329,280.817 5.237 C 280.492 5.031,279.667 5.013,279.667 5.211 C 279.667 5.307,279.576 5.299,279.445 5.190 C 279.243 5.022,270.450 4.976,269.607 5.138 M151.449 23.292 C 151.604 23.406,151.656 23.500,151.565 23.500 C 151.022 23.500,151.000 23.145,151.040 15.008 L 151.080 6.917 151.124 15.000 C 151.164 22.362,151.193 23.102,151.449 23.292 M152.125 17.614 C 152.098 19.614,152.076 18.025,152.076 14.083 C 152.076 10.142,152.098 8.505,152.125 10.447 C 152.151 12.389,152.151 15.614,152.125 17.614 M281.128 13.109 L 281.083 17.071 279.226 17.060 C 276.969 17.047,276.834 17.004,276.831 16.297 C 276.827 15.512,276.623 15.289,275.806 15.180 L 275.083 15.083 275.083 13.000 L 275.083 10.917 275.806 10.820 C 276.619 10.712,276.827 10.488,276.831 9.718 C 276.834 8.994,276.930 8.962,279.012 8.988 C 280.391 9.005,280.835 8.959,280.838 8.797 C 280.841 8.667,280.908 8.693,281.008 8.866 C 281.108 9.036,281.155 10.717,281.128 13.109 M311.889 9.021 C 312.886 9.041,312.895 9.045,312.194 9.159 C 311.063 9.343,311.092 9.205,311.161 13.934 C 311.213 17.470,311.454 17.154,308.788 17.036 L 307.000 16.956 307.000 13.978 L 307.000 11.000 307.458 10.986 C 308.916 10.942,308.941 10.917,308.986 9.468 C 309.000 9.025,309.848 8.758,310.639 8.947 C 310.761 8.976,311.323 9.009,311.889 9.021 M87.471 10.371 C 87.592 10.346,87.647 10.397,87.593 10.484 C 87.437 10.737,87.651 10.790,89.333 10.916 C 91.187 11.055,91.072 10.989,91.103 11.937 C 91.137 12.920,91.158 12.933,92.877 12.990 C 93.124 12.998,93.154 13.103,93.067 13.646 C 92.999 14.072,93.033 14.334,93.167 14.417 C 93.307 14.503,93.314 14.576,93.189 14.653 C 92.942 14.805,93.217 16.491,93.520 16.682 C 93.703 16.799,94.521 16.901,95.000 16.867 C 95.046 16.864,95.083 17.816,95.083 18.983 L 95.083 21.104 94.500 21.141 C 93.204 21.221,93.108 21.395,93.097 23.672 L 93.090 25.094 92.209 25.105 C 91.125 25.118,91.118 25.125,91.105 26.216 L 91.094 27.104 90.255 27.083 C 88.860 27.048,87.579 27.232,87.625 27.461 C 87.648 27.574,87.573 27.648,87.458 27.625 C 87.324 27.598,87.232 27.834,87.199 28.292 C 87.131 29.230,86.918 29.201,86.912 28.254 C 86.910 27.844,86.822 27.422,86.716 27.316 C 86.484 27.084,83.969 26.982,84.110 27.210 C 84.163 27.296,84.053 27.284,83.866 27.184 C 83.678 27.083,83.406 27.046,83.262 27.102 C 83.043 27.186,83.000 27.051,83.000 26.288 C 83.000 25.282,82.823 25.031,82.138 25.069 C 81.893 25.082,81.728 25.035,81.772 24.964 C 81.816 24.893,81.661 24.658,81.427 24.441 L 81.003 24.048 80.995 19.017 L 80.987 13.987 81.481 13.494 C 81.752 13.222,82.115 13.000,82.287 13.000 C 82.791 13.000,83.000 12.653,83.000 11.815 L 83.000 11.030 84.742 10.974 C 86.726 10.909,86.830 10.850,86.974 9.723 L 87.077 8.917 87.163 9.667 C 87.221 10.169,87.323 10.402,87.471 10.371 M323.167 13.101 C 323.167 16.772,323.139 17.192,322.903 17.101 C 322.758 17.046,321.821 17.000,320.820 17.000 L 319.000 17.000 319.000 14.000 L 319.000 11.000 319.800 11.000 C 320.651 11.000,321.000 10.793,321.000 10.289 C 321.000 9.722,321.849 9.017,322.542 9.008 L 323.167 9.000 323.167 13.101 M331.348 10.407 C 331.436 10.353,331.488 10.404,331.462 10.520 C 331.433 10.657,331.727 10.784,332.292 10.879 C 333.004 10.998,333.167 11.087,333.167 11.356 C 333.167 11.563,333.238 11.642,333.359 11.567 C 333.479 11.493,333.506 11.522,333.432 11.642 C 333.098 12.182,334.229 13.037,334.924 12.770 C 335.085 12.708,335.167 12.786,335.167 13.000 C 335.167 13.214,335.085 13.292,334.924 13.230 C 334.151 12.933,333.169 13.820,333.166 14.817 C 333.165 15.016,332.970 15.095,332.387 15.129 C 331.448 15.183,331.207 15.360,331.120 16.054 C 331.083 16.345,331.053 14.971,331.053 13.000 C 331.053 11.029,331.084 9.662,331.121 9.961 C 331.158 10.261,331.260 10.462,331.348 10.407 M188.112 10.902 L 188.962 11.055 189.106 11.902 C 189.235 12.661,189.298 12.756,189.708 12.803 C 189.960 12.832,190.167 12.921,190.167 13.000 C 190.167 13.079,189.960 13.168,189.708 13.197 C 189.289 13.246,189.237 13.331,189.099 14.205 C 188.964 15.056,188.909 15.151,188.599 15.078 C 187.996 14.936,187.270 15.236,187.147 15.677 C 187.084 15.901,187.033 14.696,187.033 13.000 C 187.033 11.304,187.084 10.104,187.147 10.333 C 187.241 10.678,187.408 10.776,188.112 10.902 M59.100 10.542 C 59.166 10.656,59.157 10.693,59.080 10.623 C 59.003 10.553,58.741 10.686,58.498 10.919 C 58.186 11.217,58.056 11.269,58.056 11.095 C 58.056 10.959,58.108 10.880,58.172 10.920 C 58.236 10.960,58.423 10.844,58.587 10.663 C 58.939 10.274,58.945 10.273,59.100 10.542 M239.127 19.078 L 239.083 27.052 238.203 27.074 C 237.096 27.102,237.078 27.089,236.897 26.083 L 236.748 25.250 235.874 25.102 C 234.974 24.949,234.901 24.855,234.990 23.965 C 235.036 23.505,234.682 23.000,234.315 23.000 C 234.127 23.000,233.755 22.781,233.487 22.513 L 233.000 22.026 233.000 19.000 L 233.000 15.974 233.487 15.487 C 233.755 15.219,234.127 15.000,234.315 15.000 C 234.682 15.000,235.036 14.495,234.990 14.035 C 234.901 13.145,234.974 13.051,235.875 12.898 L 236.750 12.750 236.897 11.883 L 237.044 11.015 237.980 10.966 C 238.495 10.939,238.974 10.959,239.043 11.010 C 239.113 11.061,239.150 14.692,239.127 19.078 M226.123 15.800 C 226.111 15.966,225.971 16.111,225.812 16.122 C 225.540 16.143,225.540 16.125,225.803 15.836 C 226.159 15.444,226.150 15.445,226.123 15.800 M117.333 16.542 C 117.333 16.626,117.240 16.660,117.125 16.619 C 117.010 16.577,116.782 16.661,116.617 16.805 C 116.285 17.095,115.777 17.226,115.927 16.983 C 115.980 16.898,116.083 16.865,116.156 16.910 C 116.229 16.955,116.412 16.856,116.562 16.691 C 116.848 16.374,117.333 16.280,117.333 16.542 M155.333 16.542 C 155.333 16.626,155.240 16.660,155.125 16.619 C 155.010 16.577,154.782 16.661,154.617 16.805 C 154.285 17.095,153.777 17.226,153.927 16.983 C 153.980 16.898,154.083 16.865,154.156 16.910 C 154.229 16.955,154.412 16.856,154.562 16.691 C 154.848 16.374,155.333 16.280,155.333 16.542 M213.333 16.542 C 213.333 16.626,213.240 16.660,213.125 16.619 C 213.010 16.577,212.782 16.661,212.617 16.805 C 212.285 17.095,211.777 17.226,211.927 16.983 C 211.980 16.898,212.083 16.865,212.156 16.910 C 212.229 16.955,212.412 16.856,212.562 16.691 C 212.848 16.374,213.333 16.280,213.333 16.542 M116.389 17.542 C 116.318 17.656,116.257 17.856,116.254 17.986 C 116.249 18.265,115.833 18.448,115.833 18.171 C 115.833 18.066,115.921 18.035,116.028 18.101 C 116.156 18.180,116.189 18.133,116.125 17.964 C 116.070 17.823,116.110 17.623,116.213 17.520 C 116.461 17.272,116.551 17.283,116.389 17.542 M117.090 17.674 C 117.390 18.005,117.390 18.011,117.088 17.896 C 116.857 17.807,116.813 17.833,116.915 17.997 C 117.006 18.144,116.987 18.178,116.859 18.099 C 116.690 17.995,116.574 17.333,116.724 17.333 C 116.756 17.333,116.920 17.487,117.090 17.674 M154.389 17.542 C 154.318 17.656,154.257 17.856,154.254 17.986 C 154.249 18.265,153.833 18.448,153.833 18.171 C 153.833 18.066,153.921 18.035,154.028 18.101 C 154.156 18.180,154.189 18.133,154.125 17.964 C 154.070 17.823,154.110 17.623,154.213 17.520 C 154.461 17.272,154.551 17.283,154.389 17.542 M155.090 17.674 C 155.390 18.005,155.390 18.011,155.088 17.896 C 154.857 17.807,154.813 17.833,154.915 17.997 C 155.006 18.144,154.987 18.178,154.859 18.099 C 154.690 17.995,154.574 17.333,154.724 17.333 C 154.756 17.333,154.920 17.487,155.090 17.674 M212.389 17.542 C 212.318 17.656,212.257 17.856,212.254 17.986 C 212.249 18.265,211.833 18.448,211.833 18.171 C 211.833 18.066,211.921 18.035,212.028 18.101 C 212.156 18.180,212.189 18.133,212.125 17.964 C 212.070 17.823,212.110 17.623,212.213 17.520 C 212.461 17.272,212.551 17.283,212.389 17.542 M213.090 17.674 C 213.390 18.005,213.390 18.011,213.088 17.896 C 212.857 17.807,212.813 17.833,212.915 17.997 C 213.006 18.144,212.987 18.178,212.859 18.099 C 212.690 17.995,212.574 17.333,212.724 17.333 C 212.756 17.333,212.920 17.487,213.090 17.674 M80.122 19.708 C 80.087 20.098,80.058 19.779,80.058 19.000 C 80.058 18.221,80.087 17.902,80.122 18.292 C 80.157 18.681,80.157 19.319,80.122 19.708 M79.118 19.375 C 79.078 19.581,79.045 19.412,79.045 19.000 C 79.045 18.587,79.078 18.419,79.118 18.625 C 79.157 18.831,79.157 19.169,79.118 19.375 M311.026 21.000 C 311.132 21.000,311.172 22.306,311.137 24.641 C 311.082 28.343,311.159 28.883,311.731 28.816 C 312.112 28.771,312.350 28.837,312.271 28.966 C 312.181 29.112,309.216 29.105,309.070 28.959 C 309.020 28.909,308.975 28.570,308.970 28.204 C 308.959 27.349,308.797 27.106,308.219 27.071 C 307.961 27.056,307.581 27.033,307.375 27.021 C 307.001 27.000,307.000 26.993,307.000 24.006 L 307.000 21.012 308.708 20.959 C 309.648 20.930,310.517 20.928,310.639 20.953 C 310.761 20.979,310.935 21.000,311.026 21.000 M187.860 22.625 C 188.254 22.814,189.488 22.975,190.667 22.994 L 191.083 23.000 191.083 25.153 C 191.083 26.610,191.028 27.259,190.912 27.163 C 190.671 26.963,188.388 27.122,187.857 27.376 C 187.540 27.527,187.362 27.796,187.222 28.335 C 187.058 28.964,187.027 28.432,187.027 25.000 C 187.027 21.568,187.058 21.036,187.222 21.665 C 187.362 22.206,187.540 22.473,187.860 22.625 M323.167 25.050 L 323.167 29.100 322.548 29.028 C 321.843 28.945,321.000 28.216,321.000 27.689 C 321.000 27.255,320.731 27.094,319.958 27.065 C 319.615 27.052,319.258 27.032,319.167 27.021 C 319.063 27.008,319.000 25.875,319.000 24.000 L 319.000 21.000 321.083 21.000 L 323.167 21.000 323.167 25.050 M151.389 25.017 C 151.465 25.074,151.409 25.166,151.264 25.222 C 151.074 25.295,151.000 25.223,151.000 24.967 C 151.000 24.771,151.056 24.679,151.125 24.762 C 151.194 24.845,151.313 24.959,151.389 25.017 M301.246 27.303 C 301.217 27.457,301.186 27.727,301.179 27.903 C 301.168 28.184,300.921 28.145,300.914 27.861 C 300.913 27.800,300.845 27.645,300.763 27.516 C 300.657 27.348,300.675 27.319,300.825 27.412 C 300.980 27.507,301.006 27.448,300.924 27.189 C 300.839 26.920,300.870 26.858,301.056 26.929 C 301.190 26.981,301.276 27.149,301.246 27.303 M89.393 28.081 C 89.445 28.218,89.434 28.321,89.369 28.312 C 89.045 28.263,88.979 28.357,89.173 28.590 C 89.346 28.800,89.345 28.885,89.168 29.049 C 88.998 29.207,88.976 29.205,89.069 29.042 C 89.294 28.642,88.983 28.465,88.608 28.780 C 88.275 29.060,88.276 29.051,88.627 28.653 C 88.834 28.418,88.946 28.163,88.877 28.086 C 88.807 28.009,88.844 28.001,88.958 28.066 C 89.073 28.132,89.167 28.107,89.167 28.010 C 89.167 27.756,89.282 27.793,89.393 28.081 M151.164 30.458 C 151.162 30.708,151.138 30.714,151.000 30.500 C 150.867 30.294,150.838 30.292,150.836 30.486 C 150.834 30.616,150.788 30.677,150.733 30.622 C 150.605 30.494,150.804 30.167,151.010 30.167 C 151.096 30.167,151.166 30.298,151.164 30.458 M112.995 30.493 C 113.130 30.579,113.184 30.704,113.116 30.773 C 113.048 30.841,112.865 30.770,112.710 30.615 C 112.409 30.314,112.589 30.237,112.995 30.493 M208.995 30.493 C 209.130 30.579,209.184 30.704,209.116 30.773 C 209.048 30.841,208.865 30.770,208.710 30.615 C 208.409 30.314,208.589 30.237,208.995 30.493 M269.251 30.970 C 269.266 31.173,269.164 31.431,269.024 31.544 C 268.813 31.715,268.795 31.707,268.922 31.500 C 269.125 31.168,269.122 30.782,268.917 30.612 C 268.816 30.529,268.844 30.500,268.987 30.538 C 269.117 30.574,269.236 30.768,269.251 30.970 M113.333 31.083 C 113.166 31.285,113.170 31.334,113.355 31.336 C 113.492 31.337,113.517 31.387,113.417 31.461 C 113.204 31.617,113.133 32.541,113.343 32.411 C 113.429 32.357,113.500 32.393,113.500 32.490 C 113.500 32.694,113.455 32.703,113.100 32.567 C 112.897 32.489,112.878 32.394,113.015 32.139 C 113.137 31.910,113.137 31.748,113.013 31.599 C 112.916 31.482,112.886 31.337,112.946 31.276 C 113.006 31.216,112.912 31.158,112.736 31.147 C 112.540 31.135,112.610 31.078,112.917 31.000 C 113.192 30.930,113.445 30.864,113.479 30.853 C 113.513 30.842,113.447 30.946,113.333 31.083 M151.161 31.065 C 151.149 31.146,151.238 31.276,151.361 31.354 C 151.483 31.431,151.508 31.496,151.417 31.498 C 151.325 31.499,151.242 31.723,151.233 31.995 C 151.223 32.267,151.279 32.450,151.358 32.402 C 151.436 32.353,151.500 32.393,151.500 32.490 C 151.500 32.694,151.455 32.703,151.100 32.567 C 150.897 32.489,150.878 32.394,151.015 32.139 C 151.137 31.910,151.137 31.748,151.013 31.599 C 150.916 31.482,150.886 31.337,150.946 31.276 C 151.006 31.216,150.926 31.167,150.768 31.167 C 150.609 31.167,150.529 31.088,150.589 30.991 C 150.716 30.785,151.195 30.847,151.161 31.065 M209.333 31.083 C 209.166 31.285,209.170 31.334,209.355 31.336 C 209.492 31.337,209.517 31.387,209.417 31.461 C 209.204 31.617,209.133 32.541,209.343 32.411 C 209.429 32.357,209.500 32.393,209.500 32.490 C 209.500 32.694,209.455 32.703,209.100 32.567 C 208.897 32.489,208.878 32.394,209.015 32.139 C 209.137 31.910,209.137 31.748,209.013 31.599 C 208.916 31.482,208.886 31.337,208.946 31.276 C 209.006 31.216,208.912 31.158,208.736 31.147 C 208.540 31.135,208.610 31.078,208.917 31.000 C 209.192 30.930,209.445 30.864,209.479 30.853 C 209.513 30.842,209.447 30.946,209.333 31.083 " stroke="none" fill="#8c8c8c" fill-rule="evenodd"></path><path id="path1" d="M65.042 5.115 C 65.202 5.157,65.465 5.157,65.625 5.115 C 65.785 5.073,65.654 5.039,65.333 5.039 C 65.012 5.039,64.881 5.073,65.042 5.115 M82.833 5.167 C 83.156 5.375,83.333 5.375,83.333 5.167 C 83.333 5.075,83.165 5.001,82.958 5.003 C 82.655 5.005,82.631 5.036,82.833 5.167 M121.560 5.116 C 121.689 5.245,122.504 5.296,122.576 5.179 C 122.613 5.119,122.382 5.063,122.063 5.054 C 121.744 5.046,121.518 5.073,121.560 5.116 M159.560 5.116 C 159.689 5.245,160.504 5.296,160.576 5.179 C 160.613 5.119,160.382 5.063,160.063 5.054 C 159.744 5.046,159.518 5.073,159.560 5.116 M217.560 5.116 C 217.689 5.245,218.504 5.296,218.576 5.179 C 218.613 5.119,218.382 5.063,218.063 5.054 C 217.744 5.046,217.518 5.073,217.560 5.116 M282.044 5.120 C 282.297 5.158,282.672 5.157,282.877 5.117 C 283.082 5.078,282.875 5.046,282.417 5.048 C 281.958 5.049,281.791 5.081,282.044 5.120 M307.042 5.115 C 307.202 5.157,307.465 5.157,307.625 5.115 C 307.785 5.073,307.654 5.039,307.333 5.039 C 307.012 5.039,306.881 5.073,307.042 5.115 M130.963 12.458 C 130.937 15.644,130.959 18.925,131.010 19.750 C 131.062 20.575,131.118 17.969,131.135 13.958 C 131.152 9.948,131.131 6.667,131.088 6.667 C 131.044 6.667,130.988 9.273,130.963 12.458 M99.062 8.500 C 99.062 9.463,99.089 9.856,99.123 9.375 C 99.157 8.894,99.157 8.106,99.123 7.625 C 99.089 7.144,99.062 7.537,99.062 8.500 M179.079 19.000 C 179.079 25.738,179.100 28.494,179.125 25.125 C 179.150 21.756,179.150 16.244,179.125 12.875 C 179.100 9.506,179.079 12.262,179.079 19.000 M151.040 15.008 C 151.000 23.145,151.022 23.500,151.565 23.500 C 151.656 23.500,151.604 23.406,151.449 23.292 C 151.193 23.102,151.164 22.362,151.124 15.000 L 151.080 6.917 151.040 15.008 M152.076 14.083 C 152.076 18.025,152.098 19.614,152.125 17.614 C 152.151 15.614,152.151 12.389,152.125 10.447 C 152.098 8.505,152.076 10.142,152.076 14.083 M280.917 12.916 C 280.917 15.236,280.973 17.100,281.042 17.057 C 281.203 16.958,281.201 9.145,281.039 8.891 C 280.972 8.785,280.917 10.596,280.917 12.916 M322.964 13.083 C 322.938 15.329,322.973 17.167,323.042 17.167 C 323.110 17.167,323.167 15.329,323.167 13.083 C 323.167 10.838,323.132 9.000,323.089 9.000 C 323.046 9.000,322.990 10.838,322.964 13.083 M58.587 10.663 C 58.423 10.844,58.236 10.960,58.172 10.920 C 58.108 10.880,58.056 10.959,58.056 11.095 C 58.056 11.269,58.186 11.217,58.498 10.919 C 58.741 10.686,59.003 10.553,59.080 10.623 C 59.157 10.693,59.166 10.656,59.100 10.542 C 58.945 10.273,58.939 10.274,58.587 10.663 M239.077 19.000 C 239.077 23.446,239.099 25.265,239.125 23.042 C 239.151 20.819,239.151 17.181,239.125 14.958 C 239.099 12.735,239.077 14.554,239.077 19.000 M57.000 13.750 C 57.000 14.743,57.047 15.508,57.105 15.451 C 57.221 15.335,57.192 12.137,57.074 12.019 C 57.033 11.978,57.000 12.757,57.000 13.750 M311.067 14.500 C 311.067 15.921,311.093 16.502,311.124 15.792 C 311.155 15.081,311.155 13.919,311.124 13.208 C 311.093 12.498,311.067 13.079,311.067 14.500 M225.803 15.836 C 225.540 16.125,225.540 16.143,225.812 16.122 C 225.971 16.111,226.111 15.966,226.123 15.800 C 226.150 15.445,226.159 15.444,225.803 15.836 M73.039 16.667 C 73.039 16.987,73.073 17.119,73.115 16.958 C 73.157 16.798,73.157 16.535,73.115 16.375 C 73.073 16.215,73.039 16.346,73.039 16.667 M116.562 16.691 C 116.412 16.856,116.229 16.955,116.156 16.910 C 116.083 16.865,115.980 16.898,115.927 16.983 C 115.777 17.226,116.285 17.095,116.617 16.805 C 116.782 16.661,117.010 16.577,117.125 16.619 C 117.240 16.660,117.333 16.626,117.333 16.542 C 117.333 16.280,116.848 16.374,116.562 16.691 M154.562 16.691 C 154.412 16.856,154.229 16.955,154.156 16.910 C 154.083 16.865,153.980 16.898,153.927 16.983 C 153.777 17.226,154.285 17.095,154.617 16.805 C 154.782 16.661,155.010 16.577,155.125 16.619 C 155.240 16.660,155.333 16.626,155.333 16.542 C 155.333 16.280,154.848 16.374,154.562 16.691 M212.562 16.691 C 212.412 16.856,212.229 16.955,212.156 16.910 C 212.083 16.865,211.980 16.898,211.927 16.983 C 211.777 17.226,212.285 17.095,212.617 16.805 C 212.782 16.661,213.010 16.577,213.125 16.619 C 213.240 16.660,213.333 16.626,213.333 16.542 C 213.333 16.280,212.848 16.374,212.562 16.691 M116.213 17.520 C 116.110 17.623,116.070 17.823,116.125 17.964 C 116.189 18.133,116.156 18.180,116.028 18.101 C 115.921 18.035,115.833 18.066,115.833 18.171 C 115.833 18.448,116.249 18.265,116.254 17.986 C 116.257 17.856,116.318 17.656,116.389 17.542 C 116.551 17.283,116.461 17.272,116.213 17.520 M116.667 17.657 C 116.667 17.835,116.753 18.034,116.859 18.099 C 116.987 18.178,117.006 18.144,116.915 17.997 C 116.813 17.833,116.857 17.807,117.088 17.896 C 117.390 18.011,117.390 18.005,117.090 17.674 C 116.709 17.253,116.667 17.251,116.667 17.657 M154.213 17.520 C 154.110 17.623,154.070 17.823,154.125 17.964 C 154.189 18.133,154.156 18.180,154.028 18.101 C 153.921 18.035,153.833 18.066,153.833 18.171 C 153.833 18.448,154.249 18.265,154.254 17.986 C 154.257 17.856,154.318 17.656,154.389 17.542 C 154.551 17.283,154.461 17.272,154.213 17.520 M154.667 17.657 C 154.667 17.835,154.753 18.034,154.859 18.099 C 154.987 18.178,155.006 18.144,154.915 17.997 C 154.813 17.833,154.857 17.807,155.088 17.896 C 155.390 18.011,155.390 18.005,155.090 17.674 C 154.709 17.253,154.667 17.251,154.667 17.657 M212.213 17.520 C 212.110 17.623,212.070 17.823,212.125 17.964 C 212.189 18.133,212.156 18.180,212.028 18.101 C 211.921 18.035,211.833 18.066,211.833 18.171 C 211.833 18.448,212.249 18.265,212.254 17.986 C 212.257 17.856,212.318 17.656,212.389 17.542 C 212.551 17.283,212.461 17.272,212.213 17.520 M212.667 17.657 C 212.667 17.835,212.753 18.034,212.859 18.099 C 212.987 18.178,213.006 18.144,212.915 17.997 C 212.813 17.833,212.857 17.807,213.088 17.896 C 213.390 18.011,213.390 18.005,213.090 17.674 C 212.709 17.253,212.667 17.251,212.667 17.657 M80.058 19.000 C 80.058 19.779,80.087 20.098,80.122 19.708 C 80.157 19.319,80.157 18.681,80.122 18.292 C 80.087 17.902,80.058 18.221,80.058 19.000 M79.045 19.000 C 79.045 19.412,79.078 19.581,79.118 19.375 C 79.157 19.169,79.157 18.831,79.118 18.625 C 79.078 18.419,79.045 18.587,79.045 19.000 M311.068 23.667 C 311.068 25.179,311.093 25.798,311.124 25.042 C 311.155 24.285,311.155 23.048,311.124 22.292 C 311.093 21.535,311.068 22.154,311.068 23.667 M323.072 25.083 C 323.072 27.375,323.096 28.336,323.124 27.218 C 323.153 26.100,323.153 24.225,323.125 23.051 C 323.096 21.877,323.072 22.792,323.072 25.083 M277.045 25.000 C 277.045 25.412,277.078 25.581,277.118 25.375 C 277.157 25.169,277.157 24.831,277.118 24.625 C 277.078 24.419,277.045 24.587,277.045 25.000 M151.000 24.967 C 151.000 25.223,151.074 25.295,151.264 25.222 C 151.409 25.166,151.465 25.074,151.389 25.017 C 151.313 24.959,151.194 24.845,151.125 24.762 C 151.056 24.679,151.000 24.771,151.000 24.967 M300.924 27.189 C 301.006 27.448,300.980 27.507,300.825 27.412 C 300.675 27.319,300.657 27.348,300.763 27.516 C 300.845 27.645,300.913 27.800,300.914 27.861 C 300.921 28.145,301.168 28.184,301.179 27.903 C 301.186 27.727,301.217 27.457,301.246 27.303 C 301.276 27.149,301.190 26.981,301.056 26.929 C 300.870 26.858,300.839 26.920,300.924 27.189 M89.167 28.010 C 89.167 28.107,89.073 28.132,88.958 28.066 C 88.844 28.001,88.807 28.009,88.877 28.086 C 88.946 28.163,88.834 28.418,88.627 28.653 C 88.276 29.051,88.275 29.060,88.608 28.780 C 88.983 28.465,89.294 28.642,89.069 29.042 C 88.976 29.205,88.998 29.207,89.168 29.049 C 89.345 28.885,89.346 28.800,89.173 28.590 C 88.979 28.357,89.045 28.263,89.369 28.312 C 89.434 28.321,89.445 28.218,89.393 28.081 C 89.282 27.793,89.167 27.756,89.167 28.010 M99.062 29.500 C 99.062 30.462,99.089 30.856,99.123 30.375 C 99.157 29.894,99.157 29.106,99.123 28.625 C 99.089 28.144,99.062 28.537,99.062 29.500 M150.743 30.344 C 150.683 30.442,150.678 30.567,150.733 30.622 C 150.788 30.677,150.834 30.616,150.836 30.486 C 150.838 30.292,150.867 30.294,151.000 30.500 C 151.138 30.714,151.162 30.708,151.164 30.458 C 151.167 30.135,150.914 30.067,150.743 30.344 M112.710 30.615 C 112.865 30.770,113.048 30.841,113.116 30.773 C 113.184 30.704,113.130 30.579,112.995 30.493 C 112.589 30.237,112.409 30.314,112.710 30.615 M208.710 30.615 C 208.865 30.770,209.048 30.841,209.116 30.773 C 209.184 30.704,209.130 30.579,208.995 30.493 C 208.589 30.237,208.409 30.314,208.710 30.615 M268.917 30.612 C 269.122 30.782,269.125 31.168,268.922 31.500 C 268.795 31.707,268.813 31.715,269.024 31.544 C 269.335 31.292,269.311 30.626,268.987 30.538 C 268.844 30.500,268.816 30.529,268.917 30.612 M112.917 31.000 C 112.610 31.078,112.540 31.135,112.736 31.147 C 112.912 31.158,113.006 31.216,112.946 31.276 C 112.886 31.337,112.916 31.482,113.013 31.599 C 113.137 31.748,113.137 31.910,113.015 32.139 C 112.878 32.394,112.897 32.489,113.100 32.567 C 113.455 32.703,113.500 32.694,113.500 32.490 C 113.500 32.393,113.429 32.357,113.343 32.411 C 113.133 32.541,113.204 31.617,113.417 31.461 C 113.517 31.387,113.492 31.337,113.355 31.336 C 113.170 31.334,113.166 31.285,113.333 31.083 C 113.447 30.946,113.513 30.842,113.479 30.853 C 113.445 30.864,113.192 30.930,112.917 31.000 M150.589 30.991 C 150.529 31.088,150.609 31.167,150.768 31.167 C 150.926 31.167,151.006 31.216,150.946 31.276 C 150.886 31.337,150.916 31.482,151.013 31.599 C 151.137 31.748,151.137 31.910,151.015 32.139 C 150.878 32.394,150.897 32.489,151.100 32.567 C 151.455 32.703,151.500 32.694,151.500 32.490 C 151.500 32.393,151.436 32.353,151.358 32.402 C 151.279 32.450,151.223 32.267,151.233 31.995 C 151.242 31.723,151.325 31.499,151.417 31.498 C 151.508 31.496,151.483 31.431,151.361 31.354 C 151.238 31.276,151.149 31.146,151.161 31.065 C 151.195 30.847,150.716 30.785,150.589 30.991 M208.917 31.000 C 208.610 31.078,208.540 31.135,208.736 31.147 C 208.912 31.158,209.006 31.216,208.946 31.276 C 208.886 31.337,208.916 31.482,209.013 31.599 C 209.137 31.748,209.137 31.910,209.015 32.139 C 208.878 32.394,208.897 32.489,209.100 32.567 C 209.455 32.703,209.500 32.694,209.500 32.490 C 209.500 32.393,209.429 32.357,209.343 32.411 C 209.133 32.541,209.204 31.617,209.417 31.461 C 209.517 31.387,209.492 31.337,209.355 31.336 C 209.170 31.334,209.166 31.285,209.333 31.083 C 209.447 30.946,209.513 30.842,209.479 30.853 C 209.445 30.864,209.192 30.930,208.917 31.000 " stroke="none" fill="#908c8c" fill-rule="evenodd"></path><path id="path2" d="M65.042 5.115 C 65.202 5.157,65.465 5.157,65.625 5.115 C 65.785 5.073,65.654 5.039,65.333 5.039 C 65.012 5.039,64.881 5.073,65.042 5.115 M82.833 5.167 C 83.156 5.375,83.333 5.375,83.333 5.167 C 83.333 5.075,83.165 5.001,82.958 5.003 C 82.655 5.005,82.631 5.036,82.833 5.167 M121.560 5.116 C 121.689 5.245,122.504 5.296,122.576 5.179 C 122.613 5.119,122.382 5.063,122.063 5.054 C 121.744 5.046,121.518 5.073,121.560 5.116 M159.560 5.116 C 159.689 5.245,160.504 5.296,160.576 5.179 C 160.613 5.119,160.382 5.063,160.063 5.054 C 159.744 5.046,159.518 5.073,159.560 5.116 M217.560 5.116 C 217.689 5.245,218.504 5.296,218.576 5.179 C 218.613 5.119,218.382 5.063,218.063 5.054 C 217.744 5.046,217.518 5.073,217.560 5.116 M282.044 5.120 C 282.297 5.158,282.672 5.157,282.877 5.117 C 283.082 5.078,282.875 5.046,282.417 5.048 C 281.958 5.049,281.791 5.081,282.044 5.120 M307.042 5.115 C 307.202 5.157,307.465 5.157,307.625 5.115 C 307.785 5.073,307.654 5.039,307.333 5.039 C 307.012 5.039,306.881 5.073,307.042 5.115 M130.963 12.458 C 130.937 15.644,130.959 18.925,131.010 19.750 C 131.062 20.575,131.118 17.969,131.135 13.958 C 131.152 9.948,131.131 6.667,131.088 6.667 C 131.044 6.667,130.988 9.273,130.963 12.458 M99.062 8.500 C 99.062 9.463,99.089 9.856,99.123 9.375 C 99.157 8.894,99.157 8.106,99.123 7.625 C 99.089 7.144,99.062 7.537,99.062 8.500 M179.079 19.000 C 179.079 25.738,179.100 28.494,179.125 25.125 C 179.150 21.756,179.150 16.244,179.125 12.875 C 179.100 9.506,179.079 12.262,179.079 19.000 M151.040 15.008 C 151.000 23.145,151.022 23.500,151.565 23.500 C 151.656 23.500,151.604 23.406,151.449 23.292 C 151.193 23.102,151.164 22.362,151.124 15.000 L 151.080 6.917 151.040 15.008 M152.076 14.083 C 152.076 18.025,152.098 19.614,152.125 17.614 C 152.151 15.614,152.151 12.389,152.125 10.447 C 152.098 8.505,152.076 10.142,152.076 14.083 M280.917 12.916 C 280.917 15.236,280.973 17.100,281.042 17.057 C 281.203 16.958,281.201 9.145,281.039 8.891 C 280.972 8.785,280.917 10.596,280.917 12.916 M322.964 13.083 C 322.938 15.329,322.973 17.167,323.042 17.167 C 323.110 17.167,323.167 15.329,323.167 13.083 C 323.167 10.838,323.132 9.000,323.089 9.000 C 323.046 9.000,322.990 10.838,322.964 13.083 M58.587 10.663 C 58.423 10.844,58.236 10.960,58.172 10.920 C 58.108 10.880,58.056 10.959,58.056 11.095 C 58.056 11.269,58.186 11.217,58.498 10.919 C 58.741 10.686,59.003 10.553,59.080 10.623 C 59.157 10.693,59.166 10.656,59.100 10.542 C 58.945 10.273,58.939 10.274,58.587 10.663 M239.077 19.000 C 239.077 23.446,239.099 25.265,239.125 23.042 C 239.151 20.819,239.151 17.181,239.125 14.958 C 239.099 12.735,239.077 14.554,239.077 19.000 M57.000 13.750 C 57.000 14.743,57.047 15.508,57.105 15.451 C 57.221 15.335,57.192 12.137,57.074 12.019 C 57.033 11.978,57.000 12.757,57.000 13.750 M311.067 14.500 C 311.067 15.921,311.093 16.502,311.124 15.792 C 311.155 15.081,311.155 13.919,311.124 13.208 C 311.093 12.498,311.067 13.079,311.067 14.500 M225.803 15.836 C 225.540 16.125,225.540 16.143,225.812 16.122 C 225.971 16.111,226.111 15.966,226.123 15.800 C 226.150 15.445,226.159 15.444,225.803 15.836 M73.039 16.667 C 73.039 16.987,73.073 17.119,73.115 16.958 C 73.157 16.798,73.157 16.535,73.115 16.375 C 73.073 16.215,73.039 16.346,73.039 16.667 M116.562 16.691 C 116.412 16.856,116.229 16.955,116.156 16.910 C 116.083 16.865,115.980 16.898,115.927 16.983 C 115.777 17.226,116.285 17.095,116.617 16.805 C 116.782 16.661,117.010 16.577,117.125 16.619 C 117.240 16.660,117.333 16.626,117.333 16.542 C 117.333 16.280,116.848 16.374,116.562 16.691 M154.562 16.691 C 154.412 16.856,154.229 16.955,154.156 16.910 C 154.083 16.865,153.980 16.898,153.927 16.983 C 153.777 17.226,154.285 17.095,154.617 16.805 C 154.782 16.661,155.010 16.577,155.125 16.619 C 155.240 16.660,155.333 16.626,155.333 16.542 C 155.333 16.280,154.848 16.374,154.562 16.691 M212.562 16.691 C 212.412 16.856,212.229 16.955,212.156 16.910 C 212.083 16.865,211.980 16.898,211.927 16.983 C 211.777 17.226,212.285 17.095,212.617 16.805 C 212.782 16.661,213.010 16.577,213.125 16.619 C 213.240 16.660,213.333 16.626,213.333 16.542 C 213.333 16.280,212.848 16.374,212.562 16.691 M116.213 17.520 C 116.110 17.623,116.070 17.823,116.125 17.964 C 116.189 18.133,116.156 18.180,116.028 18.101 C 115.921 18.035,115.833 18.066,115.833 18.171 C 115.833 18.448,116.249 18.265,116.254 17.986 C 116.257 17.856,116.318 17.656,116.389 17.542 C 116.551 17.283,116.461 17.272,116.213 17.520 M116.667 17.657 C 116.667 17.835,116.753 18.034,116.859 18.099 C 116.987 18.178,117.006 18.144,116.915 17.997 C 116.813 17.833,116.857 17.807,117.088 17.896 C 117.390 18.011,117.390 18.005,117.090 17.674 C 116.709 17.253,116.667 17.251,116.667 17.657 M154.213 17.520 C 154.110 17.623,154.070 17.823,154.125 17.964 C 154.189 18.133,154.156 18.180,154.028 18.101 C 153.921 18.035,153.833 18.066,153.833 18.171 C 153.833 18.448,154.249 18.265,154.254 17.986 C 154.257 17.856,154.318 17.656,154.389 17.542 C 154.551 17.283,154.461 17.272,154.213 17.520 M154.667 17.657 C 154.667 17.835,154.753 18.034,154.859 18.099 C 154.987 18.178,155.006 18.144,154.915 17.997 C 154.813 17.833,154.857 17.807,155.088 17.896 C 155.390 18.011,155.390 18.005,155.090 17.674 C 154.709 17.253,154.667 17.251,154.667 17.657 M212.213 17.520 C 212.110 17.623,212.070 17.823,212.125 17.964 C 212.189 18.133,212.156 18.180,212.028 18.101 C 211.921 18.035,211.833 18.066,211.833 18.171 C 211.833 18.448,212.249 18.265,212.254 17.986 C 212.257 17.856,212.318 17.656,212.389 17.542 C 212.551 17.283,212.461 17.272,212.213 17.520 M212.667 17.657 C 212.667 17.835,212.753 18.034,212.859 18.099 C 212.987 18.178,213.006 18.144,212.915 17.997 C 212.813 17.833,212.857 17.807,213.088 17.896 C 213.390 18.011,213.390 18.005,213.090 17.674 C 212.709 17.253,212.667 17.251,212.667 17.657 M80.058 19.000 C 80.058 19.779,80.087 20.098,80.122 19.708 C 80.157 19.319,80.157 18.681,80.122 18.292 C 80.087 17.902,80.058 18.221,80.058 19.000 M79.045 19.000 C 79.045 19.412,79.078 19.581,79.118 19.375 C 79.157 19.169,79.157 18.831,79.118 18.625 C 79.078 18.419,79.045 18.587,79.045 19.000 M311.068 23.667 C 311.068 25.179,311.093 25.798,311.124 25.042 C 311.155 24.285,311.155 23.048,311.124 22.292 C 311.093 21.535,311.068 22.154,311.068 23.667 M323.072 25.083 C 323.072 27.375,323.096 28.336,323.124 27.218 C 323.153 26.100,323.153 24.225,323.125 23.051 C 323.096 21.877,323.072 22.792,323.072 25.083 M277.045 25.000 C 277.045 25.412,277.078 25.581,277.118 25.375 C 277.157 25.169,277.157 24.831,277.118 24.625 C 277.078 24.419,277.045 24.587,277.045 25.000 M151.000 24.967 C 151.000 25.223,151.074 25.295,151.264 25.222 C 151.409 25.166,151.465 25.074,151.389 25.017 C 151.313 24.959,151.194 24.845,151.125 24.762 C 151.056 24.679,151.000 24.771,151.000 24.967 M300.924 27.189 C 301.006 27.448,300.980 27.507,300.825 27.412 C 300.675 27.319,300.657 27.348,300.763 27.516 C 300.845 27.645,300.913 27.800,300.914 27.861 C 300.921 28.145,301.168 28.184,301.179 27.903 C 301.186 27.727,301.217 27.457,301.246 27.303 C 301.276 27.149,301.190 26.981,301.056 26.929 C 300.870 26.858,300.839 26.920,300.924 27.189 M89.167 28.010 C 89.167 28.107,89.073 28.132,88.958 28.066 C 88.844 28.001,88.807 28.009,88.877 28.086 C 88.946 28.163,88.834 28.418,88.627 28.653 C 88.276 29.051,88.275 29.060,88.608 28.780 C 88.983 28.465,89.294 28.642,89.069 29.042 C 88.976 29.205,88.998 29.207,89.168 29.049 C 89.345 28.885,89.346 28.800,89.173 28.590 C 88.979 28.357,89.045 28.263,89.369 28.312 C 89.434 28.321,89.445 28.218,89.393 28.081 C 89.282 27.793,89.167 27.756,89.167 28.010 M99.062 29.500 C 99.062 30.462,99.089 30.856,99.123 30.375 C 99.157 29.894,99.157 29.106,99.123 28.625 C 99.089 28.144,99.062 28.537,99.062 29.500 M150.743 30.344 C 150.683 30.442,150.678 30.567,150.733 30.622 C 150.788 30.677,150.834 30.616,150.836 30.486 C 150.838 30.292,150.867 30.294,151.000 30.500 C 151.138 30.714,151.162 30.708,151.164 30.458 C 151.167 30.135,150.914 30.067,150.743 30.344 M112.710 30.615 C 112.865 30.770,113.048 30.841,113.116 30.773 C 113.184 30.704,113.130 30.579,112.995 30.493 C 112.589 30.237,112.409 30.314,112.710 30.615 M208.710 30.615 C 208.865 30.770,209.048 30.841,209.116 30.773 C 209.184 30.704,209.130 30.579,208.995 30.493 C 208.589 30.237,208.409 30.314,208.710 30.615 M268.917 30.612 C 269.122 30.782,269.125 31.168,268.922 31.500 C 268.795 31.707,268.813 31.715,269.024 31.544 C 269.335 31.292,269.311 30.626,268.987 30.538 C 268.844 30.500,268.816 30.529,268.917 30.612 M112.917 31.000 C 112.610 31.078,112.540 31.135,112.736 31.147 C 112.912 31.158,113.006 31.216,112.946 31.276 C 112.886 31.337,112.916 31.482,113.013 31.599 C 113.137 31.748,113.137 31.910,113.015 32.139 C 112.878 32.394,112.897 32.489,113.100 32.567 C 113.455 32.703,113.500 32.694,113.500 32.490 C 113.500 32.393,113.429 32.357,113.343 32.411 C 113.133 32.541,113.204 31.617,113.417 31.461 C 113.517 31.387,113.492 31.337,113.355 31.336 C 113.170 31.334,113.166 31.285,113.333 31.083 C 113.447 30.946,113.513 30.842,113.479 30.853 C 113.445 30.864,113.192 30.930,112.917 31.000 M150.589 30.991 C 150.529 31.088,150.609 31.167,150.768 31.167 C 150.926 31.167,151.006 31.216,150.946 31.276 C 150.886 31.337,150.916 31.482,151.013 31.599 C 151.137 31.748,151.137 31.910,151.015 32.139 C 150.878 32.394,150.897 32.489,151.100 32.567 C 151.455 32.703,151.500 32.694,151.500 32.490 C 151.500 32.393,151.436 32.353,151.358 32.402 C 151.279 32.450,151.223 32.267,151.233 31.995 C 151.242 31.723,151.325 31.499,151.417 31.498 C 151.508 31.496,151.483 31.431,151.361 31.354 C 151.238 31.276,151.149 31.146,151.161 31.065 C 151.195 30.847,150.716 30.785,150.589 30.991 M208.917 31.000 C 208.610 31.078,208.540 31.135,208.736 31.147 C 208.912 31.158,209.006 31.216,208.946 31.276 C 208.886 31.337,208.916 31.482,209.013 31.599 C 209.137 31.748,209.137 31.910,209.015 32.139 C 208.878 32.394,208.897 32.489,209.100 32.567 C 209.455 32.703,209.500 32.694,209.500 32.490 C 209.500 32.393,209.429 32.357,209.343 32.411 C 209.133 32.541,209.204 31.617,209.417 31.461 C 209.517 31.387,209.492 31.337,209.355 31.336 C 209.170 31.334,209.166 31.285,209.333 31.083 C 209.447 30.946,209.513 30.842,209.479 30.853 C 209.445 30.864,209.192 30.930,208.917 31.000 " stroke="none" fill="#908c8c" fill-rule="evenodd"></path><path id="path3" d="M65.042 5.115 C 65.202 5.157,65.465 5.157,65.625 5.115 C 65.785 5.073,65.654 5.039,65.333 5.039 C 65.012 5.039,64.881 5.073,65.042 5.115 M82.833 5.167 C 83.156 5.375,83.333 5.375,83.333 5.167 C 83.333 5.075,83.165 5.001,82.958 5.003 C 82.655 5.005,82.631 5.036,82.833 5.167 M121.560 5.116 C 121.689 5.245,122.504 5.296,122.576 5.179 C 122.613 5.119,122.382 5.063,122.063 5.054 C 121.744 5.046,121.518 5.073,121.560 5.116 M159.560 5.116 C 159.689 5.245,160.504 5.296,160.576 5.179 C 160.613 5.119,160.382 5.063,160.063 5.054 C 159.744 5.046,159.518 5.073,159.560 5.116 M217.560 5.116 C 217.689 5.245,218.504 5.296,218.576 5.179 C 218.613 5.119,218.382 5.063,218.063 5.054 C 217.744 5.046,217.518 5.073,217.560 5.116 M282.044 5.120 C 282.297 5.158,282.672 5.157,282.877 5.117 C 283.082 5.078,282.875 5.046,282.417 5.048 C 281.958 5.049,281.791 5.081,282.044 5.120 M307.042 5.115 C 307.202 5.157,307.465 5.157,307.625 5.115 C 307.785 5.073,307.654 5.039,307.333 5.039 C 307.012 5.039,306.881 5.073,307.042 5.115 M130.963 12.458 C 130.937 15.644,130.959 18.925,131.010 19.750 C 131.062 20.575,131.118 17.969,131.135 13.958 C 131.152 9.948,131.131 6.667,131.088 6.667 C 131.044 6.667,130.988 9.273,130.963 12.458 M99.062 8.500 C 99.062 9.463,99.089 9.856,99.123 9.375 C 99.157 8.894,99.157 8.106,99.123 7.625 C 99.089 7.144,99.062 7.537,99.062 8.500 M179.079 19.000 C 179.079 25.738,179.100 28.494,179.125 25.125 C 179.150 21.756,179.150 16.244,179.125 12.875 C 179.100 9.506,179.079 12.262,179.079 19.000 M151.040 15.008 C 151.000 23.145,151.022 23.500,151.565 23.500 C 151.656 23.500,151.604 23.406,151.449 23.292 C 151.193 23.102,151.164 22.362,151.124 15.000 L 151.080 6.917 151.040 15.008 M152.076 14.083 C 152.076 18.025,152.098 19.614,152.125 17.614 C 152.151 15.614,152.151 12.389,152.125 10.447 C 152.098 8.505,152.076 10.142,152.076 14.083 M280.917 12.916 C 280.917 15.236,280.973 17.100,281.042 17.057 C 281.203 16.958,281.201 9.145,281.039 8.891 C 280.972 8.785,280.917 10.596,280.917 12.916 M322.964 13.083 C 322.938 15.329,322.973 17.167,323.042 17.167 C 323.110 17.167,323.167 15.329,323.167 13.083 C 323.167 10.838,323.132 9.000,323.089 9.000 C 323.046 9.000,322.990 10.838,322.964 13.083 M58.587 10.663 C 58.423 10.844,58.236 10.960,58.172 10.920 C 58.108 10.880,58.056 10.959,58.056 11.095 C 58.056 11.269,58.186 11.217,58.498 10.919 C 58.741 10.686,59.003 10.553,59.080 10.623 C 59.157 10.693,59.166 10.656,59.100 10.542 C 58.945 10.273,58.939 10.274,58.587 10.663 M239.077 19.000 C 239.077 23.446,239.099 25.265,239.125 23.042 C 239.151 20.819,239.151 17.181,239.125 14.958 C 239.099 12.735,239.077 14.554,239.077 19.000 M57.000 13.750 C 57.000 14.743,57.047 15.508,57.105 15.451 C 57.221 15.335,57.192 12.137,57.074 12.019 C 57.033 11.978,57.000 12.757,57.000 13.750 M311.067 14.500 C 311.067 15.921,311.093 16.502,311.124 15.792 C 311.155 15.081,311.155 13.919,311.124 13.208 C 311.093 12.498,311.067 13.079,311.067 14.500 M225.803 15.836 C 225.540 16.125,225.540 16.143,225.812 16.122 C 225.971 16.111,226.111 15.966,226.123 15.800 C 226.150 15.445,226.159 15.444,225.803 15.836 M73.039 16.667 C 73.039 16.987,73.073 17.119,73.115 16.958 C 73.157 16.798,73.157 16.535,73.115 16.375 C 73.073 16.215,73.039 16.346,73.039 16.667 M116.562 16.691 C 116.412 16.856,116.229 16.955,116.156 16.910 C 116.083 16.865,115.980 16.898,115.927 16.983 C 115.777 17.226,116.285 17.095,116.617 16.805 C 116.782 16.661,117.010 16.577,117.125 16.619 C 117.240 16.660,117.333 16.626,117.333 16.542 C 117.333 16.280,116.848 16.374,116.562 16.691 M154.562 16.691 C 154.412 16.856,154.229 16.955,154.156 16.910 C 154.083 16.865,153.980 16.898,153.927 16.983 C 153.777 17.226,154.285 17.095,154.617 16.805 C 154.782 16.661,155.010 16.577,155.125 16.619 C 155.240 16.660,155.333 16.626,155.333 16.542 C 155.333 16.280,154.848 16.374,154.562 16.691 M212.562 16.691 C 212.412 16.856,212.229 16.955,212.156 16.910 C 212.083 16.865,211.980 16.898,211.927 16.983 C 211.777 17.226,212.285 17.095,212.617 16.805 C 212.782 16.661,213.010 16.577,213.125 16.619 C 213.240 16.660,213.333 16.626,213.333 16.542 C 213.333 16.280,212.848 16.374,212.562 16.691 M116.213 17.520 C 116.110 17.623,116.070 17.823,116.125 17.964 C 116.189 18.133,116.156 18.180,116.028 18.101 C 115.921 18.035,115.833 18.066,115.833 18.171 C 115.833 18.448,116.249 18.265,116.254 17.986 C 116.257 17.856,116.318 17.656,116.389 17.542 C 116.551 17.283,116.461 17.272,116.213 17.520 M116.667 17.657 C 116.667 17.835,116.753 18.034,116.859 18.099 C 116.987 18.178,117.006 18.144,116.915 17.997 C 116.813 17.833,116.857 17.807,117.088 17.896 C 117.390 18.011,117.390 18.005,117.090 17.674 C 116.709 17.253,116.667 17.251,116.667 17.657 M154.213 17.520 C 154.110 17.623,154.070 17.823,154.125 17.964 C 154.189 18.133,154.156 18.180,154.028 18.101 C 153.921 18.035,153.833 18.066,153.833 18.171 C 153.833 18.448,154.249 18.265,154.254 17.986 C 154.257 17.856,154.318 17.656,154.389 17.542 C 154.551 17.283,154.461 17.272,154.213 17.520 M154.667 17.657 C 154.667 17.835,154.753 18.034,154.859 18.099 C 154.987 18.178,155.006 18.144,154.915 17.997 C 154.813 17.833,154.857 17.807,155.088 17.896 C 155.390 18.011,155.390 18.005,155.090 17.674 C 154.709 17.253,154.667 17.251,154.667 17.657 M212.213 17.520 C 212.110 17.623,212.070 17.823,212.125 17.964 C 212.189 18.133,212.156 18.180,212.028 18.101 C 211.921 18.035,211.833 18.066,211.833 18.171 C 211.833 18.448,212.249 18.265,212.254 17.986 C 212.257 17.856,212.318 17.656,212.389 17.542 C 212.551 17.283,212.461 17.272,212.213 17.520 M212.667 17.657 C 212.667 17.835,212.753 18.034,212.859 18.099 C 212.987 18.178,213.006 18.144,212.915 17.997 C 212.813 17.833,212.857 17.807,213.088 17.896 C 213.390 18.011,213.390 18.005,213.090 17.674 C 212.709 17.253,212.667 17.251,212.667 17.657 M80.058 19.000 C 80.058 19.779,80.087 20.098,80.122 19.708 C 80.157 19.319,80.157 18.681,80.122 18.292 C 80.087 17.902,80.058 18.221,80.058 19.000 M79.045 19.000 C 79.045 19.412,79.078 19.581,79.118 19.375 C 79.157 19.169,79.157 18.831,79.118 18.625 C 79.078 18.419,79.045 18.587,79.045 19.000 M311.068 23.667 C 311.068 25.179,311.093 25.798,311.124 25.042 C 311.155 24.285,311.155 23.048,311.124 22.292 C 311.093 21.535,311.068 22.154,311.068 23.667 M323.072 25.083 C 323.072 27.375,323.096 28.336,323.124 27.218 C 323.153 26.100,323.153 24.225,323.125 23.051 C 323.096 21.877,323.072 22.792,323.072 25.083 M277.045 25.000 C 277.045 25.412,277.078 25.581,277.118 25.375 C 277.157 25.169,277.157 24.831,277.118 24.625 C 277.078 24.419,277.045 24.587,277.045 25.000 M151.000 24.967 C 151.000 25.223,151.074 25.295,151.264 25.222 C 151.409 25.166,151.465 25.074,151.389 25.017 C 151.313 24.959,151.194 24.845,151.125 24.762 C 151.056 24.679,151.000 24.771,151.000 24.967 M300.924 27.189 C 301.006 27.448,300.980 27.507,300.825 27.412 C 300.675 27.319,300.657 27.348,300.763 27.516 C 300.845 27.645,300.913 27.800,300.914 27.861 C 300.921 28.145,301.168 28.184,301.179 27.903 C 301.186 27.727,301.217 27.457,301.246 27.303 C 301.276 27.149,301.190 26.981,301.056 26.929 C 300.870 26.858,300.839 26.920,300.924 27.189 M89.167 28.010 C 89.167 28.107,89.073 28.132,88.958 28.066 C 88.844 28.001,88.807 28.009,88.877 28.086 C 88.946 28.163,88.834 28.418,88.627 28.653 C 88.276 29.051,88.275 29.060,88.608 28.780 C 88.983 28.465,89.294 28.642,89.069 29.042 C 88.976 29.205,88.998 29.207,89.168 29.049 C 89.345 28.885,89.346 28.800,89.173 28.590 C 88.979 28.357,89.045 28.263,89.369 28.312 C 89.434 28.321,89.445 28.218,89.393 28.081 C 89.282 27.793,89.167 27.756,89.167 28.010 M99.062 29.500 C 99.062 30.462,99.089 30.856,99.123 30.375 C 99.157 29.894,99.157 29.106,99.123 28.625 C 99.089 28.144,99.062 28.537,99.062 29.500 M150.743 30.344 C 150.683 30.442,150.678 30.567,150.733 30.622 C 150.788 30.677,150.834 30.616,150.836 30.486 C 150.838 30.292,150.867 30.294,151.000 30.500 C 151.138 30.714,151.162 30.708,151.164 30.458 C 151.167 30.135,150.914 30.067,150.743 30.344 M112.710 30.615 C 112.865 30.770,113.048 30.841,113.116 30.773 C 113.184 30.704,113.130 30.579,112.995 30.493 C 112.589 30.237,112.409 30.314,112.710 30.615 M208.710 30.615 C 208.865 30.770,209.048 30.841,209.116 30.773 C 209.184 30.704,209.130 30.579,208.995 30.493 C 208.589 30.237,208.409 30.314,208.710 30.615 M268.917 30.612 C 269.122 30.782,269.125 31.168,268.922 31.500 C 268.795 31.707,268.813 31.715,269.024 31.544 C 269.335 31.292,269.311 30.626,268.987 30.538 C 268.844 30.500,268.816 30.529,268.917 30.612 M112.917 31.000 C 112.610 31.078,112.540 31.135,112.736 31.147 C 112.912 31.158,113.006 31.216,112.946 31.276 C 112.886 31.337,112.916 31.482,113.013 31.599 C 113.137 31.748,113.137 31.910,113.015 32.139 C 112.878 32.394,112.897 32.489,113.100 32.567 C 113.455 32.703,113.500 32.694,113.500 32.490 C 113.500 32.393,113.429 32.357,113.343 32.411 C 113.133 32.541,113.204 31.617,113.417 31.461 C 113.517 31.387,113.492 31.337,113.355 31.336 C 113.170 31.334,113.166 31.285,113.333 31.083 C 113.447 30.946,113.513 30.842,113.479 30.853 C 113.445 30.864,113.192 30.930,112.917 31.000 M150.589 30.991 C 150.529 31.088,150.609 31.167,150.768 31.167 C 150.926 31.167,151.006 31.216,150.946 31.276 C 150.886 31.337,150.916 31.482,151.013 31.599 C 151.137 31.748,151.137 31.910,151.015 32.139 C 150.878 32.394,150.897 32.489,151.100 32.567 C 151.455 32.703,151.500 32.694,151.500 32.490 C 151.500 32.393,151.436 32.353,151.358 32.402 C 151.279 32.450,151.223 32.267,151.233 31.995 C 151.242 31.723,151.325 31.499,151.417 31.498 C 151.508 31.496,151.483 31.431,151.361 31.354 C 151.238 31.276,151.149 31.146,151.161 31.065 C 151.195 30.847,150.716 30.785,150.589 30.991 M208.917 31.000 C 208.610 31.078,208.540 31.135,208.736 31.147 C 208.912 31.158,209.006 31.216,208.946 31.276 C 208.886 31.337,208.916 31.482,209.013 31.599 C 209.137 31.748,209.137 31.910,209.015 32.139 C 208.878 32.394,208.897 32.489,209.100 32.567 C 209.455 32.703,209.500 32.694,209.500 32.490 C 209.500 32.393,209.429 32.357,209.343 32.411 C 209.133 32.541,209.204 31.617,209.417 31.461 C 209.517 31.387,209.492 31.337,209.355 31.336 C 209.170 31.334,209.166 31.285,209.333 31.083 C 209.447 30.946,209.513 30.842,209.479 30.853 C 209.445 30.864,209.192 30.930,208.917 31.000 " stroke="none" fill="#908c8c" fill-rule="evenodd"></path><path id="path4" d="M65.042 5.115 C 65.202 5.157,65.465 5.157,65.625 5.115 C 65.785 5.073,65.654 5.039,65.333 5.039 C 65.012 5.039,64.881 5.073,65.042 5.115 M82.833 5.167 C 83.156 5.375,83.333 5.375,83.333 5.167 C 83.333 5.075,83.165 5.001,82.958 5.003 C 82.655 5.005,82.631 5.036,82.833 5.167 M121.560 5.116 C 121.689 5.245,122.504 5.296,122.576 5.179 C 122.613 5.119,122.382 5.063,122.063 5.054 C 121.744 5.046,121.518 5.073,121.560 5.116 M159.560 5.116 C 159.689 5.245,160.504 5.296,160.576 5.179 C 160.613 5.119,160.382 5.063,160.063 5.054 C 159.744 5.046,159.518 5.073,159.560 5.116 M217.560 5.116 C 217.689 5.245,218.504 5.296,218.576 5.179 C 218.613 5.119,218.382 5.063,218.063 5.054 C 217.744 5.046,217.518 5.073,217.560 5.116 M282.044 5.120 C 282.297 5.158,282.672 5.157,282.877 5.117 C 283.082 5.078,282.875 5.046,282.417 5.048 C 281.958 5.049,281.791 5.081,282.044 5.120 M307.042 5.115 C 307.202 5.157,307.465 5.157,307.625 5.115 C 307.785 5.073,307.654 5.039,307.333 5.039 C 307.012 5.039,306.881 5.073,307.042 5.115 M130.963 12.458 C 130.937 15.644,130.959 18.925,131.010 19.750 C 131.062 20.575,131.118 17.969,131.135 13.958 C 131.152 9.948,131.131 6.667,131.088 6.667 C 131.044 6.667,130.988 9.273,130.963 12.458 M99.062 8.500 C 99.062 9.463,99.089 9.856,99.123 9.375 C 99.157 8.894,99.157 8.106,99.123 7.625 C 99.089 7.144,99.062 7.537,99.062 8.500 M179.079 19.000 C 179.079 25.738,179.100 28.494,179.125 25.125 C 179.150 21.756,179.150 16.244,179.125 12.875 C 179.100 9.506,179.079 12.262,179.079 19.000 M151.040 15.008 C 151.000 23.145,151.022 23.500,151.565 23.500 C 151.656 23.500,151.604 23.406,151.449 23.292 C 151.193 23.102,151.164 22.362,151.124 15.000 L 151.080 6.917 151.040 15.008 M152.076 14.083 C 152.076 18.025,152.098 19.614,152.125 17.614 C 152.151 15.614,152.151 12.389,152.125 10.447 C 152.098 8.505,152.076 10.142,152.076 14.083 M280.917 12.916 C 280.917 15.236,280.973 17.100,281.042 17.057 C 281.203 16.958,281.201 9.145,281.039 8.891 C 280.972 8.785,280.917 10.596,280.917 12.916 M322.964 13.083 C 322.938 15.329,322.973 17.167,323.042 17.167 C 323.110 17.167,323.167 15.329,323.167 13.083 C 323.167 10.838,323.132 9.000,323.089 9.000 C 323.046 9.000,322.990 10.838,322.964 13.083 M58.587 10.663 C 58.423 10.844,58.236 10.960,58.172 10.920 C 58.108 10.880,58.056 10.959,58.056 11.095 C 58.056 11.269,58.186 11.217,58.498 10.919 C 58.741 10.686,59.003 10.553,59.080 10.623 C 59.157 10.693,59.166 10.656,59.100 10.542 C 58.945 10.273,58.939 10.274,58.587 10.663 M239.077 19.000 C 239.077 23.446,239.099 25.265,239.125 23.042 C 239.151 20.819,239.151 17.181,239.125 14.958 C 239.099 12.735,239.077 14.554,239.077 19.000 M57.000 13.750 C 57.000 14.743,57.047 15.508,57.105 15.451 C 57.221 15.335,57.192 12.137,57.074 12.019 C 57.033 11.978,57.000 12.757,57.000 13.750 M311.067 14.500 C 311.067 15.921,311.093 16.502,311.124 15.792 C 311.155 15.081,311.155 13.919,311.124 13.208 C 311.093 12.498,311.067 13.079,311.067 14.500 M225.803 15.836 C 225.540 16.125,225.540 16.143,225.812 16.122 C 225.971 16.111,226.111 15.966,226.123 15.800 C 226.150 15.445,226.159 15.444,225.803 15.836 M73.039 16.667 C 73.039 16.987,73.073 17.119,73.115 16.958 C 73.157 16.798,73.157 16.535,73.115 16.375 C 73.073 16.215,73.039 16.346,73.039 16.667 M116.562 16.691 C 116.412 16.856,116.229 16.955,116.156 16.910 C 116.083 16.865,115.980 16.898,115.927 16.983 C 115.777 17.226,116.285 17.095,116.617 16.805 C 116.782 16.661,117.010 16.577,117.125 16.619 C 117.240 16.660,117.333 16.626,117.333 16.542 C 117.333 16.280,116.848 16.374,116.562 16.691 M154.562 16.691 C 154.412 16.856,154.229 16.955,154.156 16.910 C 154.083 16.865,153.980 16.898,153.927 16.983 C 153.777 17.226,154.285 17.095,154.617 16.805 C 154.782 16.661,155.010 16.577,155.125 16.619 C 155.240 16.660,155.333 16.626,155.333 16.542 C 155.333 16.280,154.848 16.374,154.562 16.691 M212.562 16.691 C 212.412 16.856,212.229 16.955,212.156 16.910 C 212.083 16.865,211.980 16.898,211.927 16.983 C 211.777 17.226,212.285 17.095,212.617 16.805 C 212.782 16.661,213.010 16.577,213.125 16.619 C 213.240 16.660,213.333 16.626,213.333 16.542 C 213.333 16.280,212.848 16.374,212.562 16.691 M116.213 17.520 C 116.110 17.623,116.070 17.823,116.125 17.964 C 116.189 18.133,116.156 18.180,116.028 18.101 C 115.921 18.035,115.833 18.066,115.833 18.171 C 115.833 18.448,116.249 18.265,116.254 17.986 C 116.257 17.856,116.318 17.656,116.389 17.542 C 116.551 17.283,116.461 17.272,116.213 17.520 M116.667 17.657 C 116.667 17.835,116.753 18.034,116.859 18.099 C 116.987 18.178,117.006 18.144,116.915 17.997 C 116.813 17.833,116.857 17.807,117.088 17.896 C 117.390 18.011,117.390 18.005,117.090 17.674 C 116.709 17.253,116.667 17.251,116.667 17.657 M154.213 17.520 C 154.110 17.623,154.070 17.823,154.125 17.964 C 154.189 18.133,154.156 18.180,154.028 18.101 C 153.921 18.035,153.833 18.066,153.833 18.171 C 153.833 18.448,154.249 18.265,154.254 17.986 C 154.257 17.856,154.318 17.656,154.389 17.542 C 154.551 17.283,154.461 17.272,154.213 17.520 M154.667 17.657 C 154.667 17.835,154.753 18.034,154.859 18.099 C 154.987 18.178,155.006 18.144,154.915 17.997 C 154.813 17.833,154.857 17.807,155.088 17.896 C 155.390 18.011,155.390 18.005,155.090 17.674 C 154.709 17.253,154.667 17.251,154.667 17.657 M212.213 17.520 C 212.110 17.623,212.070 17.823,212.125 17.964 C 212.189 18.133,212.156 18.180,212.028 18.101 C 211.921 18.035,211.833 18.066,211.833 18.171 C 211.833 18.448,212.249 18.265,212.254 17.986 C 212.257 17.856,212.318 17.656,212.389 17.542 C 212.551 17.283,212.461 17.272,212.213 17.520 M212.667 17.657 C 212.667 17.835,212.753 18.034,212.859 18.099 C 212.987 18.178,213.006 18.144,212.915 17.997 C 212.813 17.833,212.857 17.807,213.088 17.896 C 213.390 18.011,213.390 18.005,213.090 17.674 C 212.709 17.253,212.667 17.251,212.667 17.657 M80.058 19.000 C 80.058 19.779,80.087 20.098,80.122 19.708 C 80.157 19.319,80.157 18.681,80.122 18.292 C 80.087 17.902,80.058 18.221,80.058 19.000 M79.045 19.000 C 79.045 19.412,79.078 19.581,79.118 19.375 C 79.157 19.169,79.157 18.831,79.118 18.625 C 79.078 18.419,79.045 18.587,79.045 19.000 M311.068 23.667 C 311.068 25.179,311.093 25.798,311.124 25.042 C 311.155 24.285,311.155 23.048,311.124 22.292 C 311.093 21.535,311.068 22.154,311.068 23.667 M323.072 25.083 C 323.072 27.375,323.096 28.336,323.124 27.218 C 323.153 26.100,323.153 24.225,323.125 23.051 C 323.096 21.877,323.072 22.792,323.072 25.083 M277.045 25.000 C 277.045 25.412,277.078 25.581,277.118 25.375 C 277.157 25.169,277.157 24.831,277.118 24.625 C 277.078 24.419,277.045 24.587,277.045 25.000 M151.000 24.967 C 151.000 25.223,151.074 25.295,151.264 25.222 C 151.409 25.166,151.465 25.074,151.389 25.017 C 151.313 24.959,151.194 24.845,151.125 24.762 C 151.056 24.679,151.000 24.771,151.000 24.967 M300.924 27.189 C 301.006 27.448,300.980 27.507,300.825 27.412 C 300.675 27.319,300.657 27.348,300.763 27.516 C 300.845 27.645,300.913 27.800,300.914 27.861 C 300.921 28.145,301.168 28.184,301.179 27.903 C 301.186 27.727,301.217 27.457,301.246 27.303 C 301.276 27.149,301.190 26.981,301.056 26.929 C 300.870 26.858,300.839 26.920,300.924 27.189 M89.167 28.010 C 89.167 28.107,89.073 28.132,88.958 28.066 C 88.844 28.001,88.807 28.009,88.877 28.086 C 88.946 28.163,88.834 28.418,88.627 28.653 C 88.276 29.051,88.275 29.060,88.608 28.780 C 88.983 28.465,89.294 28.642,89.069 29.042 C 88.976 29.205,88.998 29.207,89.168 29.049 C 89.345 28.885,89.346 28.800,89.173 28.590 C 88.979 28.357,89.045 28.263,89.369 28.312 C 89.434 28.321,89.445 28.218,89.393 28.081 C 89.282 27.793,89.167 27.756,89.167 28.010 M99.062 29.500 C 99.062 30.462,99.089 30.856,99.123 30.375 C 99.157 29.894,99.157 29.106,99.123 28.625 C 99.089 28.144,99.062 28.537,99.062 29.500 M150.743 30.344 C 150.683 30.442,150.678 30.567,150.733 30.622 C 150.788 30.677,150.834 30.616,150.836 30.486 C 150.838 30.292,150.867 30.294,151.000 30.500 C 151.138 30.714,151.162 30.708,151.164 30.458 C 151.167 30.135,150.914 30.067,150.743 30.344 M112.710 30.615 C 112.865 30.770,113.048 30.841,113.116 30.773 C 113.184 30.704,113.130 30.579,112.995 30.493 C 112.589 30.237,112.409 30.314,112.710 30.615 M208.710 30.615 C 208.865 30.770,209.048 30.841,209.116 30.773 C 209.184 30.704,209.130 30.579,208.995 30.493 C 208.589 30.237,208.409 30.314,208.710 30.615 M268.917 30.612 C 269.122 30.782,269.125 31.168,268.922 31.500 C 268.795 31.707,268.813 31.715,269.024 31.544 C 269.335 31.292,269.311 30.626,268.987 30.538 C 268.844 30.500,268.816 30.529,268.917 30.612 M112.917 31.000 C 112.610 31.078,112.540 31.135,112.736 31.147 C 112.912 31.158,113.006 31.216,112.946 31.276 C 112.886 31.337,112.916 31.482,113.013 31.599 C 113.137 31.748,113.137 31.910,113.015 32.139 C 112.878 32.394,112.897 32.489,113.100 32.567 C 113.455 32.703,113.500 32.694,113.500 32.490 C 113.500 32.393,113.429 32.357,113.343 32.411 C 113.133 32.541,113.204 31.617,113.417 31.461 C 113.517 31.387,113.492 31.337,113.355 31.336 C 113.170 31.334,113.166 31.285,113.333 31.083 C 113.447 30.946,113.513 30.842,113.479 30.853 C 113.445 30.864,113.192 30.930,112.917 31.000 M150.589 30.991 C 150.529 31.088,150.609 31.167,150.768 31.167 C 150.926 31.167,151.006 31.216,150.946 31.276 C 150.886 31.337,150.916 31.482,151.013 31.599 C 151.137 31.748,151.137 31.910,151.015 32.139 C 150.878 32.394,150.897 32.489,151.100 32.567 C 151.455 32.703,151.500 32.694,151.500 32.490 C 151.500 32.393,151.436 32.353,151.358 32.402 C 151.279 32.450,151.223 32.267,151.233 31.995 C 151.242 31.723,151.325 31.499,151.417 31.498 C 151.508 31.496,151.483 31.431,151.361 31.354 C 151.238 31.276,151.149 31.146,151.161 31.065 C 151.195 30.847,150.716 30.785,150.589 30.991 M208.917 31.000 C 208.610 31.078,208.540 31.135,208.736 31.147 C 208.912 31.158,209.006 31.216,208.946 31.276 C 208.886 31.337,208.916 31.482,209.013 31.599 C 209.137 31.748,209.137 31.910,209.015 32.139 C 208.878 32.394,208.897 32.489,209.100 32.567 C 209.455 32.703,209.500 32.694,209.500 32.490 C 209.500 32.393,209.429 32.357,209.343 32.411 C 209.133 32.541,209.204 31.617,209.417 31.461 C 209.517 31.387,209.492 31.337,209.355 31.336 C 209.170 31.334,209.166 31.285,209.333 31.083 C 209.447 30.946,209.513 30.842,209.479 30.853 C 209.445 30.864,209.192 30.930,208.917 31.000 " stroke="none" fill="#908c8c" fill-rule="evenodd"></path></g></svg>