<?xml version="1.0" standalone="no"?>
<!DOCTYPE svg PUBLIC "-//W3C//DTD SVG 20010904//EN"
 "http://www.w3.org/TR/2001/REC-SVG-20010904/DTD/svg10.dtd">
<svg version="1.0" xmlns="http://www.w3.org/2000/svg"
 width="200.000000pt" height="23.000000pt" viewBox="0 0 200.000000 23.000000"
 preserveAspectRatio="xMidYMid meet">
<metadata>
Created by potrace 1.16, written by Peter Selinger 2001-2019
</metadata>
<g transform="translate(0.000000,23.000000) scale(0.100000,-0.100000)"
fill="#000000" stroke="none">
<path d="M0 115 l0 -115 1000 0 1000 0 0 115 0 115 -1000 0 -1000 0 0 -115z
m195 75 c4 -6 -15 -10 -50 -10 -35 0 -54 4 -50 10 3 6 26 10 50 10 24 0 47 -4
50 -10z m1025 0 c0 -5 -23 -10 -51 -10 -31 0 -48 4 -44 10 3 6 26 10 51 10 24
0 44 -4 44 -10z m-902 -7 c-10 -2 -26 -2 -35 0 -10 3 -2 5 17 5 19 0 27 -2 18
-5z m175 0 c-7 -2 -21 -2 -30 0 -10 3 -4 5 12 5 17 0 24 -2 18 -5z m170 0
c-13 -2 -33 -2 -45 0 -13 2 -3 4 22 4 25 0 35 -2 23 -4z m200 0 c-18 -2 -48
-2 -65 0 -18 2 -4 4 32 4 36 0 50 -2 33 -4z m515 0 c-15 -2 -42 -2 -60 0 -18
2 -6 4 27 4 33 0 48 -2 33 -4z m180 0 c-16 -2 -40 -2 -55 0 -16 2 -3 4 27 4
30 0 43 -2 28 -4z m180 0 c-15 -2 -42 -2 -60 0 -18 2 -6 4 27 4 33 0 48 -2 33
-4z m170 0 c-16 -2 -40 -2 -55 0 -16 2 -3 4 27 4 30 0 43 -2 28 -4z m-1595
-20 c-7 -2 -21 -2 -30 0 -10 3 -4 5 12 5 17 0 24 -2 18 -5z m175 0 c-10 -2
-26 -2 -35 0 -10 3 -2 5 17 5 19 0 27 -2 18 -5z m360 0 c-16 -2 -40 -2 -55 0
-16 2 -3 4 27 4 30 0 43 -2 28 -4z m340 0 c-16 -2 -40 -2 -55 0 -16 2 -3 4 27
4 30 0 43 -2 28 -4z m145 0 c-7 -2 -21 -2 -30 0 -10 3 -4 5 12 5 17 0 24 -2
18 -5z m60 0 c-7 -2 -21 -2 -30 0 -10 3 -4 5 12 5 17 0 24 -2 18 -5z m160 0
c-18 -2 -33 -8 -33 -14 0 -5 -11 -9 -25 -9 -16 0 -25 6 -25 15 0 12 12 15 58
13 35 -1 44 -3 25 -5z m175 0 c-16 -2 -28 -9 -28 -14 0 -5 -13 -9 -30 -9 -22
0 -28 4 -24 15 5 11 20 15 58 14 28 -1 39 -4 24 -6z m180 0 c-15 -2 -42 -2
-60 0 -18 2 -6 4 27 4 33 0 48 -2 33 -4z m-1708 -13 c0 -6 -27 -10 -61 -10
-37 0 -58 4 -54 10 8 13 115 13 115 0z m488 -2 c-3 -8 -26 -14 -61 -15 -45 -2
-55 1 -50 12 7 20 117 22 111 3z m-380 -5 c-10 -2 -26 -2 -35 0 -10 3 -2 5 17
5 19 0 27 -2 18 -5z m180 0 c-10 -2 -28 -2 -40 0 -13 2 -5 4 17 4 22 1 32 -1
23 -4z m345 0 c-13 -2 -35 -2 -50 0 -16 2 -5 4 22 4 28 0 40 -2 28 -4z m353
-8 c14 -13 10 -15 -33 -13 -43 1 -44 2 -13 6 l35 6 -40 6 -40 7 38 2 c23 0 45
-5 53 -14z m182 8 c-15 -2 -42 -2 -60 0 -18 2 -6 4 27 4 33 0 48 -2 33 -4z
m540 0 c-15 -2 -42 -2 -60 0 -18 2 -6 4 27 4 33 0 48 -2 33 -4z m-1750 -20
c-16 -2 -40 -2 -55 0 -16 2 -3 4 27 4 30 0 43 -2 28 -4z m145 0 c-7 -2 -21 -2
-30 0 -10 3 -4 5 12 5 17 0 24 -2 18 -5z m180 0 c-13 -2 -33 -2 -45 0 -13 2
-3 4 22 4 25 0 35 -2 23 -4z m340 0 c-13 -2 -33 -2 -45 0 -13 2 -3 4 22 4 25
0 35 -2 23 -4z m545 0 c-15 -2 -42 -2 -60 0 -18 2 -6 4 27 4 33 0 48 -2 33 -4z
m165 0 c-13 -2 -35 -2 -50 0 -16 2 -5 4 22 4 28 0 40 -2 28 -4z m170 0 c-13
-2 -33 -2 -45 0 -13 2 -3 4 22 4 25 0 35 -2 23 -4z m195 0 c-15 -2 -42 -2 -60
0 -18 2 -6 4 27 4 33 0 48 -2 33 -4z m-1735 -20 c-18 -2 -48 -2 -65 0 -18 2
-4 4 32 4 36 0 50 -2 33 -4z m135 0 c-10 -2 -26 -2 -35 0 -10 3 -2 5 17 5 19
0 27 -2 18 -5z m207 -3 c4 -6 -15 -10 -50 -10 -35 0 -54 4 -50 10 3 6 26 10
50 10 24 0 47 -4 50 -10z m153 3 c-15 -2 -42 -2 -60 0 -18 2 -6 4 27 4 33 0
48 -2 33 -4z m187 -3 c4 -6 -13 -10 -44 -10 -28 0 -51 5 -51 10 0 6 20 10 44
10 25 0 48 -4 51 -10z m348 3 c-13 -2 -33 -2 -45 0 -13 2 -3 4 22 4 25 0 35
-2 23 -4z m187 -3 c0 -5 -25 -10 -55 -10 -30 0 -55 5 -55 10 0 6 25 10 55 10
30 0 55 -4 55 -10z m143 3 c-13 -2 -33 -2 -45 0 -13 2 -3 4 22 4 25 0 35 -2
23 -4z m180 0 c-13 -2 -35 -2 -50 0 -16 2 -5 4 22 4 28 0 40 -2 28 -4z m177
-3 c-37 -12 -82 -12 -75 0 3 6 27 10 53 9 38 -1 42 -2 22 -9z m-1705 -20 c-3
-5 -31 -10 -61 -10 -34 0 -53 4 -49 10 3 6 31 10 61 10 34 0 53 -4 49 -10z
m165 0 c0 -5 -23 -10 -51 -10 -31 0 -48 4 -44 10 3 6 26 10 51 10 24 0 44 -4
44 -10z m325 0 c-3 -5 -26 -10 -50 -10 -24 0 -47 5 -50 10 -4 6 15 10 50 10
35 0 54 -4 50 -10z m530 0 c-3 -5 -33 -10 -66 -10 -38 0 -58 4 -54 10 3 6 33
10 66 10 38 0 58 -4 54 -10z m355 0 c0 -5 -25 -10 -56 -10 -34 0 -53 4 -49 10
3 6 28 10 56 10 27 0 49 -4 49 -10z m180 0 c0 -5 -25 -10 -56 -10 -34 0 -53 4
-49 10 3 6 28 10 56 10 27 0 49 -4 49 -10z m-1297 -7 c-7 -2 -21 -2 -30 0 -10
3 -4 5 12 5 17 0 24 -2 18 -5z m65 0 c-10 -2 -26 -2 -35 0 -10 3 -2 5 17 5 19
0 27 -2 18 -5z m285 0 c-7 -2 -21 -2 -30 0 -10 3 -4 5 12 5 17 0 24 -2 18 -5z
m60 0 c-7 -2 -21 -2 -30 0 -10 3 -4 5 12 5 17 0 24 -2 18 -5z m460 0 c-7 -2
-21 -2 -30 0 -10 3 -4 5 12 5 17 0 24 -2 18 -5z m60 0 c-7 -2 -21 -2 -30 0
-10 3 -4 5 12 5 17 0 24 -2 18 -5z m480 0 c-7 -2 -21 -2 -30 0 -10 3 -4 5 12
5 17 0 24 -2 18 -5z m-1710 -20 c-13 -2 -35 -2 -50 0 -16 2 -5 4 22 4 28 0 40
-2 28 -4z m185 0 c-16 -2 -40 -2 -55 0 -16 2 -3 4 27 4 30 0 43 -2 28 -4z
m105 0 c-7 -2 -21 -2 -30 0 -10 3 -4 5 12 5 17 0 24 -2 18 -5z m75 0 c-10 -2
-26 -2 -35 0 -10 3 -2 5 17 5 19 0 27 -2 18 -5z m130 0 c-10 -2 -26 -2 -35 0
-10 3 -2 5 17 5 19 0 27 -2 18 -5z m155 0 c-7 -2 -21 -2 -30 0 -10 3 -4 5 12
5 17 0 24 -2 18 -5z m65 0 c-10 -2 -26 -2 -35 0 -10 3 -2 5 17 5 19 0 27 -2
18 -5z m305 0 c-13 -2 -35 -2 -50 0 -16 2 -5 4 22 4 28 0 40 -2 28 -4z m150 0
c-7 -2 -21 -2 -30 0 -10 3 -4 5 12 5 17 0 24 -2 18 -5z m60 0 c-7 -2 -21 -2
-30 0 -10 3 -4 5 12 5 17 0 24 -2 18 -5z m155 0 c-16 -2 -40 -2 -55 0 -16 2
-3 4 27 4 30 0 43 -2 28 -4z m180 0 c-16 -2 -40 -2 -55 0 -16 2 -3 4 27 4 30
0 43 -2 28 -4z m135 0 c-7 -2 -21 -2 -30 0 -10 3 -4 5 12 5 17 0 24 -2 18 -5z"/>
</g>
</svg>
